<svg xmlns="http://www.w3.org/2000/svg" fill="none" viewBox="0 0 2048 2048"><g clip-path="url(#clip0_3_2985)"><path fill="#121212" d="M0 0h2048v2048H0z"/><path fill="#FB6525" d="M0 0h2048v2048h-762.1l-.5-153.9c0-30.1 1-65.8-.4-95.5l-.7-.5q-.5-54.7-.3-109.3l-1.3-.3c2.8-2.6 1.5-3.9.7-7.4l4.3.5c-3.2-3.9-2.7-9.5-2.6-14.4l-15.2-5.7-5.5-2.1 2-1c3.9-1.1 17.4-15.8 21.2-19.7 36.8-37.9 72.3-75.3 111.2-111.1l6.1-3.7c-8.1-10.1-27.9-32-37.3-41.4l1-1c-13.3-5.7-30.2-14.3-43.1-18.7.8-2.8.9-4.2 2.8-6.4 8.5-1.2 25.6-.9 34.9-1q33.9-.5 67.8-1.4c6.8-10.4 50.7-72.8 52.8-79.2l-6.6-3.6-29.4-12.7c3-4.3 6.7-11 9.4-15.6l.5.1a58 58 0 0 1 8.9-18.6l-.2-1c11.8-23.1 27.6-57.9 37.4-81.8 1.2-2.9 2.3-7.9 3.1-11.1-5.1-7.8-2-33.7-4.7-46.7l-1.8-.6c1.2-10.8 6.5-26.6 8.3-39.8a93 93 0 0 0 27.6-26.5c3.3-3 34.7-9.9 43.7-13.2 4.1-4.8 16-17.8 17.4-23.2 4.3-16.7 7.9-36.6 11.3-53.5a4971 4971 0 0 1 24.8-114.6 122 122 0 0 1 32-21.2c2.7-1 1.8 0 4.7-2.3 23.5-16.9 46-35.3 69.9-51.6 4.7-3.2 11.9-7.3 15.7-11.2-.1-5.4-14-64.6-16.1-72.4 8.6-6.8 13.8-11 21.6-18.8-5.7-4.1-9.3-8.3-14.1-13.4 6.5-2.6 9.2-3.8 15.2-7.3l1.1-5.7c31.1 14 49.1 16.1 80.1 24.7 5.9-6 16.2-21.1 21.2-28.2l35-50.3c-4.9-23.7-10.8-46.8-15.3-70.7 5.7-15.3 13.2-20.3 10.2-36.3-15.2-5.4-47.1-22.4-62.4-30.4-1.5-4.3-7.8-16-10.1-20.4l-20-38.7-37.4-73.4c-6.7-13.5-17.2-36.2-25.1-47.9l-1.7-5.7-4 1c-15.8 4-32.8 9.9-48.5 14.9l-71.8 23.1c-16.5 5.3-33.3 10.5-49.6 16.7-1.5.6-2.9 5.1-3.3 6.6l-3.1 2.1c-19.5-23.2-39-48.3-58.2-71.2-20.6-24.5-76.3-40.8-106.5-52.5a6005 6005 0 0 0-170.2-64.3l-65.5-24.4c-11.3-4.2-23.2-8.7-34.8-12.4-4.5-1.4-9.7-.1-14.3.9a2420 2420 0 0 0-150 77.9c-6.1-3.3-24.2-9-31.7-11.5l-49.8-16.2c-5.6-1.9-20.7-6.6-25.3-9.7l-.4.5c-3.8 18.9-9.1 37.2-14.3 55.7-2 7.2-6.4 19.2-7.8 26-7.1 3.1-19.2 6-26.9 8.2-44.9 12.8-88.9 28.3-133.6 41.6a22 22 0 0 1-10.8 1.3c-2.1 1.2-4.4 2.5-5.7 4.5-20.3 33.5-41.5 67.7-60.3 102-8.1 3.6-23.1 6.9-28.7 10.1-45.1 25.7-88.8 56.2-133.5 82.5-10.1 29.3-18.9 60.2-28.2 89.8l-58.5 188.1q24.8 16.3 48.7 34c7.8 5.7 22.2 17.1 29.8 21.7 6.1 3.8 22.2 8.8 30.8 12.9-1 23.4-3.4 40.9-8.5 63.9 44.3 47.2 85.6 99.2 129.9 147.5l-7.8 8.1c-4 19.7-7.6 40.7-12 60.2-28.5-5.7-57.4-10.4-85.6-16.1a2795 2795 0 0 0-36.4 53.5c-5.1 7.6-15 21.8-18.1 29.7 50.3 14.6 98.6 24.7 149.2 42.7 4.9 9 10.8 19.2 15.1 28.4 6.6 13.4 13 29.2 19.3 43l33.9 74c8.7 19.2 28.1 59.5 34.4 77.6l-.3 254.6c-40.3-50.2-87.8-122.5-123.2-176.2l-27.4-41.5c-3.2-4.8-14-20.7-15.9-25.5-5.3-13.9-10.7-29.8-15.7-44l-33.2-94.3-86.8-32.1c-26.1-9.4-53.9-18.9-79.4-29.1-33.4 12.5-70.4 23-104.6 34.1l118.4-81.1 39.9-27.1c4.3-2.9 8.7-4.5 13.3-7.8-1-.5-224.5 20-242 21.6-35.9 28.4-73.6 61.6-108.5 91.5z"/><path fill="#1C1C1C" d="M1404.9 1523.9c38.7 15.3 88.9 36.1 128.3 48.5 3.8 3.7 28.6 74.7 33.6 87.8 4.8 3.2 16.9 30.4 20 37 11.7-5.1 65.2-34.8 72.5-35.2q16.6 33.5 32.3 67.4c3.8 8 10.4 21.2 13.4 28.9l3.2 1.3c4.2 6.6 9.9 17.1 13.7 23.5q76.2 132 150.7 264.9h-586.7l-.5-153.9c0-30.1 1-65.8-.4-95.5l-.7-.5q-.5-54.7-.3-109.3l-1.3-.3c2.8-2.6 1.5-3.9.7-7.4l4.3.5c-3.2-3.9-2.7-9.5-2.6-14.4l-15.2-5.7-5.5-2.1 2-1c3.9-1.1 17.4-15.8 21.2-19.7 36.8-37.9 72.3-75.3 111.2-111.1z"/><path fill="#333" d="M1285 1798.6c77 32.2 155.6 70.1 233.8 99.4 43.2 19.5 85.4 40.4 129.5 58.3 5.5 2.2 27.3 12.3 32.4 12.7 4.9 10.5 10.6 26 15 37 5.2 13.4 11.7 28.6 16.5 42h-426.3l-.5-153.9c0-30.1 1-65.8-.4-95.5"/><path fill="#1E1E1E" d="M1415.1 2048c43.5-36.9 79.4-86.7 121.7-125.5 3.2-3 12.2-.3 13.8 3.5 34.3 40.2 67.2 81.8 101.4 122z"/><path fill="#E0DFDF" d="m1284 1688.8 15 3.7 2.5.3c7.5 2.5 33.2 10.7 40.3 11.8 8.1-1.1 16.4.9 24.7.9 4.4.1 7.9-.7 12-.7a1170 1170 0 0 1 40.5 15.8c6.2 1.9 14.4 4.2 19.3 8.4-1.8 5.1.7 9 3 13.7 25.4 51.8 52.4 103.3 77.5 155.3-78.2-29.3-156.8-67.2-233.8-99.4l-.7-.5q-.5-54.7-.3-109.3"/><path fill="#FEFEFD" d="M1341.8 1704.6c8.1-1.1 16.4.9 24.7.9 4.4.1 7.9-.7 12-.7a1170 1170 0 0 1 40.5 15.8l-2.1 1.8c-13 1.3-59.6-13.6-75.1-17.8m96.5 24.4q57.5 33.4 114.3 67.9c21.6 12.9 63.2 34.6 79.9 54.3 3.9 4.6 13.7 30.8 16.6 38.1l31.6 79.7c-5.1-.4-26.9-10.5-32.4-12.7-44.1-17.9-86.3-38.8-129.5-58.3-25.1-52-52.1-103.5-77.5-155.3-2.3-4.7-4.8-8.6-3-13.7"/><path fill="#B5B4B4" d="M1528.8 1647.2c-.7-3.3-.7-1.7.3-5 10.4 5 27.4 13.9 37.7 18 4.8 3.2 16.9 30.4 20 37 4.6 8.6 10.8 19.6 14.7 28.3-3.5-1.6-8.5-3.6-11.6-5.7-18-6-49.1-22.3-67.2-30.9a806 806 0 0 1-51.7-26.2c11.1-5.1 45.9-12.9 57.8-15.5"/><path fill="#D0CECE" d="M1528.8 1647.2c-.7-3.3-.7-1.7.3-5 10.4 5 27.4 13.9 37.7 18 4.8 3.2 16.9 30.4 20 37 4.6 8.6 10.8 19.6 14.7 28.3-3.5-1.6-8.5-3.6-11.6-5.7-6.1-11.2-34.6-38.4-44.3-50.4-3.4-4.1-14.6-19.9-16.8-22.2"/><path fill="#9F9E9E" d="M1438.2 1598a865 865 0 0 1 90.9 44.2c-1 3.3-1 1.7-.3 5-11.9 2.6-46.7 10.4-57.8 15.5-10.2-21.5-22.2-43.2-32.8-64.7"/><path fill="#FBCEAE" d="m1285.1 1667.2 64.7 26.3 28.7 11.3c-4.1 0-7.6.8-12 .7-8.3 0-16.6-2-24.7-.9-7.1-1.1-32.8-9.3-40.3-11.8l-2.5-.3-15-3.7-1.3-.3c2.8-2.6 1.5-3.9.7-7.4l4.3.5c-3.2-3.9-2.7-9.5-2.6-14.4"/><path fill="#D0CECE" d="M1301.5 1692.8c14.3.7 35 5.2 48.3.7l28.7 11.3c-4.1 0-7.6.8-12 .7-8.3 0-16.6-2-24.7-.9-7.1-1.1-32.8-9.3-40.3-11.8"/><path fill="#FB975F" d="m1283.4 1681.1 4.3.5 11.3 10.9-15-3.7-1.3-.3c2.8-2.6 1.5-3.9.7-7.4"/><path fill="#1E1E1E" d="M1705 1758.3c8.2-.9 28.8 2.7 37.7 3.5 25.8 2.2 60.1 8.1 85.4 8.3 5.4 3.6 127.8 254.4 138.7 277.9h-94.2q-74.5-133-150.7-264.9c-3.8-6.4-9.5-16.9-13.7-23.5z"/><path fill="#FB975F" d="m559.8 1304.2 1 .3c5.3 1.4 13.1 5.8 17 4.5 6.6 13.4 13 29.2 19.3 43l33.9 74c8.7 19.2 28.1 59.5 34.4 77.6-7-1.1-41.8-13.6-50.4-16.6q-49.7-17.7-100.1-33.5c4.3-19.5 14.1-49.9 20.1-69.6 7.6-24.6 16.1-56 24.8-79.7"/><path fill="#D0CECE" d="M1738 331.2a2297 2297 0 0 1 126.5 65.7c5.7 36.8 16 75.9 22.7 112.8 2.2 12.1 5.8 26 7.5 38-15.2-5.4-47.1-22.4-62.4-30.4-1.5-4.3-7.8-16-10.1-20.4l-20-38.7-37.4-73.4c-6.7-13.5-17.2-36.2-25.1-47.9z"/><path fill="#9F9E9E" d="M851.4 212.2c2.1-1.7 6.4-4.8 9.1-5 70.2-5.3 138.9-23.7 208.8-31.4 13-1.4 25.7-4 38.9-4.1a2420 2420 0 0 0-150 77.9c-6.1-3.3-24.2-9-31.7-11.5l-49.8-16.2c-5.6-1.9-20.7-6.6-25.3-9.7"/><path fill="#333" d="M851 212.7c-3.8 18.9-9.1 37.2-14.3 55.7-2 7.2-6.4 19.2-7.8 26-7.1 3.1-19.2 6-26.9 8.2-44.9 12.8-88.9 28.3-133.6 41.6a22 22 0 0 1-10.8 1.3c16-12.6 42.8-29.8 60.4-41.8q67-44.8 133-91"/><path fill="#9F9E9E" d="M1659.3 1662c56.5 32 117.9 68.4 168.8 108.1-25.3-.2-59.6-6.1-85.4-8.3-8.9-.8-29.5-4.4-37.7-3.5-3-7.7-9.6-20.9-13.4-28.9a2776 2776 0 0 0-32.3-67.4m-290.7-180.5c16.3 4.6 121.8 45.1 132.1 52.6 7.9 5.8 26.4 29.4 32.5 38.3-39.4-12.4-89.6-33.2-128.3-48.5-8.1-10.1-27.9-32-37.3-41.4z"/><path fill="#FBB080" d="M360.7 1231.4c19.1 3.1 35.8 1.2 52.8 6.5 50.3 14.6 98.6 24.7 149.2 42.7 4.9 9 10.8 19.2 15.1 28.4-3.9 1.3-11.7-3.1-17-4.5l-1-.3c-15.9-4.6-35.4-12.3-51.4-18-49.4-17.7-98-37.7-147.7-54.8"/><path fill="#B5B4B4" d="M1508.7 1143.4a93 93 0 0 0 27.6-26.5c0 9.9-25.1 100.7-29.4 113.6-5.1-7.8-2-33.7-4.7-46.7l-1.8-.6c1.2-10.8 6.5-26.6 8.3-39.8"/><path fill="#E0DFDF" d="M1466.6 1324.4c5.3 14.8 13.2 35.7 17.2 50.4l-6.6-3.6-29.4-12.7c3-4.3 6.7-11 9.4-15.6l.5.1a58 58 0 0 1 8.9-18.6"/><path fill="#9F9E9E" d="m1457.2 1342.9.5.1c6 9.6 12.9 18.9 19.5 28.2l-29.4-12.7c3-4.3 6.7-11 9.4-15.6"/><path fill="#B5B4B4" d="M1762.4 714.2c-.2 5.4-.2 15.9-1.1 20.7-5.7-4.1-9.3-8.3-14.1-13.4 6.5-2.6 9.2-3.8 15.2-7.3"/><path fill="#333" d="M420.2 1513.7c-2 14.1-6.4 33.1-9.3 47.5l-18.7 89.2c-13.3 63.4-24.9 127.7-37.7 191.1-24.8 26.8-50.4 52.8-75 79.9L159.1 2011c-14.5 10.8-36.6 26.1-50 37H0v-500c89.5-8.5 182.3-14.7 272.2-21.8l92.4-7.8c16.4-1.4 37.6-3.8 53.7-3.8z"/><path fill="#1E1E1E" d="M0 1705.8c48.8 37.1 96.1 75.4 145.5 112.7l79.4 60.1c16.8 12.8 38.5 28.9 54.6 42.8L159.1 2011c-14.5 10.8-36.6 26.1-50 37H0z"/><path fill="#9F9E9E" d="M0 1548c89.5-8.5 182.3-14.7 272.2-21.8l92.4-7.8c16.4-1.4 37.6-3.8 53.7-3.8-100.8 48.5-207 94.1-309.4 140.3l-74.6 33.7C23.9 1693.3 9.8 1699 0 1704z"/><path fill="#FEFEFD" d="M1108.2 171.7c4.6-1 9.8-2.3 14.3-.9 11.6 3.7 23.5 8.2 34.8 12.4l65.5 24.4q85.6 30.9 170.2 64.3c30.2 11.7 85.9 28 106.5 52.5 19.2 22.9 38.7 48 58.2 71.2-4.1 1.9-12.7 6.1-16.6 7.4l-5.9-.6c-4.3 4-8.2 7.4-12.8 11.1l.2 1.3c1.5 13.5 15.6 67.1 13.3 74.7a64 64 0 0 1-19.7-5.5c-19.2-7.8-39.4-13.2-58.8-20.4-3-.9-7.1-2.5-9.8-1.7-40.1 40.8-76.4 86.4-116.6 127.3-9.6-13.6-28.1-46.5-36.7-61.7-15.6-27.5-35-57.9-49.5-85.5l-.6-.2-60.2-95c-10.4-16.4-22.7-36.9-34.3-52-15.2 4.9-36.1 15.5-50.4 22.6l-63.3 31.4q-35.8 14.5-71.4 29.7c-13.2 5.6-32 11.8-44.4 17.9l-1.4 2.3-2-1c-7-.2-23.8 2.8-31.8 3.6-21.2 2.1-42.4 4.6-63.8 5.5 7.9-10.2 21.6-32.8 29.2-44.4q29-43.5 59.1-86.1c-27 6.2-53.3 11.6-80.6 18.1 1.4-6.8 5.8-18.8 7.8-26 5.2-18.5 10.5-36.8 14.3-55.7l.4-.5c4.6 3.1 19.7 7.8 25.3 9.7l49.8 16.2c7.5 2.5 25.6 8.2 31.7 11.5q73.6-41.6 150-77.9"/><path fill="#E0DFDF" d="M1328.6 278.5c29.2 17.8 191.7 121.4 206.6 123.9-4.3 4-8.2 7.4-12.8 11.1l.2 1.3c1.5 13.5 15.6 67.1 13.3 74.7a64 64 0 0 1-19.7-5.5c-19.2-7.8-39.4-13.2-58.8-20.4-3-.9-7.1-2.5-9.8-1.7-40.1 40.8-76.4 86.4-116.6 127.3-9.6-13.6-28.1-46.5-36.7-61.7-15.6-27.5-35-57.9-49.5-85.5 23.7.2 54.9 4.1 78.7 6.7a2883 2883 0 0 0 124.3 11.4c-40.7-60.3-76.5-121-119.2-181.6"/><path fill="#616161" d="M851.4 212.2c4.6 3.1 19.7 7.8 25.3 9.7l49.8 16.2c7.5 2.5 25.6 8.2 31.7 11.5-16.3 10.3-32 16.8-46.8 25.8q39 .3 78 2c13 .5 31.6.6 44.1 2.2 25.9 3.3 52.3 6.8 78.3 9.9 6.6.8 33.2 5.5 37.9 5.3-15.2 4.9-36.1 15.5-50.4 22.6l-63.3 31.4q-35.8 14.5-71.4 29.7c-13.2 5.6-32 11.8-44.4 17.9l-1.4 2.3-2-1c-7-.2-23.8 2.8-31.8 3.6-21.2 2.1-42.4 4.6-63.8 5.5 7.9-10.2 21.6-32.8 29.2-44.4q29-43.5 59.1-86.1c-27 6.2-53.3 11.6-80.6 18.1 1.4-6.8 5.8-18.8 7.8-26 5.2-18.5 10.5-36.8 14.3-55.7z"/><path fill="#FB6525" d="M947.2 2048c-5.1-18.8-9.6-41.6-13.9-61l-26.4-116.6-21-91.9c-1.8-7.7-12.7-50.7-9.9-54.3l1.9.5c24.1 2.3 64.3 11.3 89 15.8l211 38.9c30.5 5.6 60.9 11.7 91.6 16.5 4.4.7 9.3 1.8 13.7 2.3l1.1-.1.7.5c1.4 29.7.4 65.4.4 95.5l.5 153.9z"/><path fill="#FB975F" d="M877.9 1724.7c24.1 2.3 64.3 11.3 89 15.8l211 38.9c30.5 5.6 60.9 11.7 91.6 16.5 4.4.7 9.3 1.8 13.7 2.3-1.4 3.3-35.2 24.8-41.2 28.9q-56.6 39.5-113.6 78.3c-10.6-8.8-36.3-25.6-48.8-34.5l-147.8-106.7q-18-12.8-36.3-25.4c-4.7-3.3-15.5-9.5-17.6-14.1"/><path fill="#333" d="m1036 348.8 63.3-31.4c14.3-7.1 35.2-17.7 50.4-22.6 11.6 15.1 23.9 35.6 34.3 52l60.2 95-.7.7c-10.4 12.6-21.8 23.6-33.3 35.3l-52.2 52.8c-7.8 7.8-35 33.7-38.5 41.2-7.7.1-30-2.1-34.4.3l-1.4-1.8c-18.4 4.5-39.1 7.9-57.9 11.3-15.3 2.9-34.9 7-50.1 8.8-1.1-7.9-.9-35.1-1.1-44.5L973 449c-7.9-8.4-45.1-46.4-52.8-52.6 12.4-6.1 31.2-12.3 44.4-17.9q35.6-15.2 71.4-29.7"/><path fill="#1E1E1E" d="m1036 348.8 63.3-31.4c14.3-7.1 35.2-17.7 50.4-22.6 11.6 15.1 23.9 35.6 34.3 52l60.2 95-.7.7c-4.8-.8-17.8-.7-23.1-.8l-41.9-.6c-29.6-.6-57.9-2.9-87.3-4.1-4.7-9.5-16.9-28.3-22.9-37.8-9.6-15.4-21.6-36.3-32.3-50.4M973 449c25 28.2 51.5 55.8 76.5 84.1 9.6 10.9 25.9 26.6 34.2 37.2-18.4 4.5-39.1 7.9-57.9 11.3-15.3 2.9-34.9 7-50.1 8.8-1.1-7.9-.9-35.1-1.1-44.5z"/><path fill="#333" d="M821.2 406.8c21.4-.9 42.6-3.4 63.8-5.5 8-.8 24.8-3.8 31.8-3.6l2 1c-2.1 9.3-87.2 140.2-99 156.8q-148 24.6-296.5 45.5 14.8-41.5 30.6-82.8c2.8-7.5 14-41 19-44.6h.9c40.1-18.1 79.8-39.5 120.5-55.8 4.6-1.8 39.5-3.6 47.1-4.1 26.5-1.8 53.4-5.4 79.8-6.9"/><path fill="#BDBCBC" d="M821.2 406.8c21.4-.9 42.6-3.4 63.8-5.5 8-.8 24.8-3.8 31.8-3.6-8.2 4-26 12.8-34.2 14.5-21.3 4.3-43.2 8.2-64.6 12.4l-175.5 33.5a663 663 0 0 0-54.5 12.6c-4.6 1.4-9.4 3.1-14.2 2.9 40.1-18.1 79.8-39.5 120.5-55.8 4.6-1.8 39.5-3.6 47.1-4.1 26.5-1.8 53.4-5.4 79.8-6.9"/><path fill="#1E1E1E" d="m910.9 1063.9 1.7 1c3.4 2.1 8 6.2 11.4 6.9 9.3 2.7 65 33.6 77 40l18.9 10.2c61.7 35.7 125.1 68.8 185.7 106.6 10.7 6.6 22.6 14 33.6 20-3.6.5-13.8-1.8-17.8-2.5l-4-.5c-3.3.4-6.5 2.3-9.1 2.5-34.4 2.4-66.2 15.7-99.3 25.7-53.4 16.1-106.5 37-160 52.7-5.3-31.5-9.3-68.1-14-100.3q-12.6-81.1-24.1-162.3"/><path fill="#D0CECE" d="M924 1071.8c9.3 2.7 65 33.6 77 40l18.9 10.2c61.7 35.7 125.1 68.8 185.7 106.6 10.7 6.6 22.6 14 33.6 20-3.6.5-13.8-1.8-17.8-2.5l-4-.5c-39.4-2.7-40.9-3.5-72.3-25.3l-44.5-30.7q-87.7-59.8-176.6-117.8"/><path fill="#1E1E1E" d="m1244.2 441.8.6.2c14.5 27.6 33.9 58 49.5 85.5 8.6 15.2 27.1 48.1 36.7 61.7l.2.7 1.1.5c.9 8.5 6.3 26.6 8.7 35.4l15.5 57.4c-60.8-1.3-121.9-5.3-182.7-7.8-15.3-.6-31.4-1.6-46.8-.8-14-30.1-30.1-71.7-41.9-102.5 4.4-2.4 26.7-.2 34.4-.3 3.5-7.5 30.7-33.4 38.5-41.2l52.2-52.8c11.5-11.7 22.9-22.7 33.3-35.3z"/><path fill="#616161" d="m1244.2 441.8.6.2c14.5 27.6 33.9 58 49.5 85.5 8.6 15.2 27.1 48.1 36.7 61.7l.2.7c-9.8.3-49.7-5.1-62.4-6.2q-74.7-5.6-149.3-11.9c3.5-7.5 30.7-33.4 38.5-41.2l52.2-52.8c11.5-11.7 22.9-22.7 33.3-35.3z"/><path fill="#1E1E1E" d="M1221.4 1246.1c4 .7 14.2 3 17.8 2.5 29.6 5.7 59.6 17.4 89 24.6 12.7 3.2 24.2 7.2 37.4 8.8l.5 1c.3 6 7.4 36.6 9.8 42.3-45.4 41.4-92.6 92.2-141.1 130 5.6 2.8 11.7 5.4 17.4 7.9-19.1 36.3-29.7 94.2-45.9 130-14.7-17.5-28.5-36.1-43-53.8-49-60.1-97.2-123.9-147.5-182.8 19.9 7.7 42.1 18.5 61.8 27.3 52.5 23.3 103.9 48.4 156.6 71.4-5.7-61-6.7-123.9-9.4-185.1-.3-7.5.2-17.6-3.4-24.1"/><path fill="#333" d="M1331 589.2c40.2-40.9 76.5-86.5 116.6-127.3 2.7-.8 6.8.8 9.8 1.7.4 2.1 7.3 15.4 9 19.7l44.1 112.3 11.8 31.2c.3 1 2.9 2.2 3.9 2.6 1.2 4.5 3.3 11.1 2.9 15.4l4.7 1.6c-.8 6.1 36.5 82.6 42 96.8-21-5.4-43.3-12.8-64.3-19a7181 7181 0 0 0-98.1-27.4c-12.9-3.4-44.7-12.1-56.9-13.6l-15.5-57.4c-2.4-8.8-7.8-26.9-8.7-35.4l-1.1-.5z"/><path fill="#B5B4B4" d="M1331 589.2c40.2-40.9 76.5-86.5 116.6-127.3 2.7-.8 6.8.8 9.8 1.7.4 2.1 7.3 15.4 9 19.7l44.1 112.3 11.8 31.2c.3 1 2.9 2.2 3.9 2.6 1.2 4.5 3.3 11.1 2.9 15.4-9.9-2.6-19.7-6.2-29.6-9-55.1-15.4-111.3-32.9-167.2-45.4l-1.1-.5z"/><path fill="#D0CECE" d="m108.2 1402.6 212.1 75.5c32.4 11.5 68.1 23.2 99.9 35.6l-1.9.9c-16.1 0-37.3 2.4-53.7 3.8l-92.4 7.8c-89.9 7.1-182.7 13.3-272.2 21.8v-65.5q53.4-40.8 108.2-79.9"/><path fill="#333" d="M1560.8 393.5c.4-1.5 1.8-6 3.3-6.6 16.3-6.2 33.1-11.4 49.6-16.7l71.8-23.1c15.7-5 32.7-10.9 48.5-14.9-4.4 7.1-70.4 64.8-81.5 75.1 8 27.4 10.8 56.3 13.9 84.6.8 7.1-1.2 15-.1 22.1 3.1 20.9 8.2 41.5 12 62.3l5.3 28.7c-34.4-5.4-70.4-16.5-105.6-22.2a915 915 0 0 0-23.2-52.7c-4.5-9.5-14.6-30.6-16.7-40.5 24.4 2.6 50.7 7.5 74.9 11.9 16.8 3 35.9 5.8 52.4 9.8-4.5-30.7-14-72.1-16.2-102.2-31.2 0-57.1-2.3-87-3-.2-3.9-.9-8.6-1.4-12.6M949.9 899.3q30 15.7 59.2 32.8c-4.1 13.8-1.1 38.9-2.9 51.4-2.7 18.4.3 118-5.2 128.3-12-6.4-67.7-37.3-77-40-3.4-.7-8-4.8-11.4-6.9l-1.7-1 .4-2.1a7866 7866 0 0 0 25.3-106.7c2.1-9.3 10.3-48.2 13.3-55.8"/><path fill="#616161" d="m1083.7 570.3 1.4 1.8c11.8 30.8 27.9 72.4 41.9 102.5l3.7 5-.4 1.7c-5.2 1.8-12.5-2.4-17.2-5.1-42.8 3.5-94.1 13.7-137.9 19.1.8-4.7 33.4-48.9 39.1-55.5-10.8-12.2-31.9-36.2-39.2-49l.6-.4c15.2-1.8 34.8-5.9 50.1-8.8 18.8-3.4 39.5-6.8 57.9-11.3"/><path fill="#1E1E1E" d="M1684.1 723.9c4.9-1.3 10.2 3.5 14.3 6.3 3.4 2.3 19 11.6 20.7 13.1 7.5 4.3 12.5 7.4 20.6 10.4 2.1 7.8 16 67 16.1 72.4-3.8 3.9-11 8-15.7 11.2-23.9 16.3-46.4 34.7-69.9 51.6 1-11.6 6-26.7 9.7-37.5-21-20.7-42.9-38.4-63.4-61.2a301 301 0 0 0 49.3-46.3c5.6-6.6 12.6-12.8 18.3-20"/><path fill="#E0DFDF" d="M1719.1 743.3c7.5 4.3 12.5 7.4 20.6 10.4 2.1 7.8 16 67 16.1 72.4-8.7-6.1-18.6-11.9-27.7-17.5a205 205 0 0 0-17.9-35.6c4.2-4.3 6-12.4 7.6-18.2 0-3.5.8-7.9 1.3-11.5"/><path fill="#9F9E9E" d="M1672.1 783.5c8.4-2.1 32.4-10.2 38.1-10.5a205 205 0 0 1 17.9 35.6q-28-12.8-56-25.1"/><path fill="#616161" d="M1698.4 730.2c3.4 2.3 19 11.6 20.7 13.1-.5 3.6-1.3 8-1.3 11.5-8.6-4.6-15.3-7.6-19.8-16.4z"/><path fill="#333" d="M1684.1 723.9c4.9-1.3 10.2 3.5 14.3 6.3l-.4 8.2c-5.4-4.5-10.9-8.2-13.9-14.5M847.8 606.3l79.6-9.6c13.1-1.7 35.6-5.5 47.7-5.9 7.3 12.8 28.4 36.8 39.2 49-5.7 6.6-38.3 50.8-39.1 55.5-2.3 1-21.8 3.4-25.6 3.9-11 1.5-19.6 2.9-30.6 5.6-15.2-26.6-51.8-71-71.2-98.5"/><path fill="#1E1E1E" d="M878.2 795.1c25.8 15.2 57.1 38.5 83.6 55.4-2.3 8.9-11.5 42.3-11.9 48.8-3 7.6-11.2 46.5-13.3 55.8a7866 7866 0 0 1-25.3 106.7c-4.3-20.9-8.1-63-10.9-86.7-6.9-58.3-17.4-122-22.2-180"/><path fill="#9F9E9E" d="M1104.2 1652.7c13.3 1.3 29.9 6 43.7 8.3 45.2 7.8 89.9 19 134.8 27.5l1.3.3q-.2 54.7.3 109.3l-1.1.1c-2.2-2.6-12.9-10.7-16.2-13.4l-33.6-26.7a6521 6521 0 0 1-129.2-105.4"/><path fill="#333" d="M1325.5 1462.8c12.9 4.4 29.8 13 43.1 18.7l-1 1c9.4 9.4 29.2 31.3 37.3 41.4l-6.1 3.7c-38.9 35.8-74.4 73.2-111.2 111.1-3.8 3.9-17.3 18.6-21.2 19.7 7.9-22.3 14.3-46.6 21.1-69.4 7.5-25.3 16.1-51.3 22.7-76.9 4.8-16.2 11-33.4 15.3-49.3"/><path fill="#9F9E9E" d="M1325.5 1462.8c12.9 4.4 29.8 13 43.1 18.7l-1 1c9.4 9.4 29.2 31.3 37.3 41.4l-6.1 3.7-7.1-1.6c-11-1.3-29.1-6-41.3-7.9-9.5-1.4-34.4-3.7-40.2-6 4.8-16.2 11-33.4 15.3-49.3"/><path fill="#616161" d="M1367.6 1482.5c9.4 9.4 29.2 31.3 37.3 41.4l-6.1 3.7-7.1-1.6c3.9-.4 7.1-.2 9.5-2.7-.9-3.6-6.5-8.7-9.3-11.8-1.3 4.5.2 7.8-5.2 8.7-9.4-4-22.5-26.7-19.1-37.7"/><path fill="#FB6525" d="m983.4 1557.5 281 101.9 5.5 2.1 15.2 5.7c-.1 4.9-.6 10.5 2.6 14.4l-4.3-.5c.8 3.5 2.1 4.8-.7 7.4-44.9-8.5-89.6-19.7-134.8-27.5-13.8-2.3-30.4-7-43.7-8.3-14.7-10.5-33.4-26.3-47.8-37.9a5743 5743 0 0 0-73-57.3"/><path fill="#FB975F" d="m1269.9 1661.5 15.2 5.7c-.1 4.9-.6 10.5 2.6 14.4l-4.3-.5a57 57 0 0 1-13.5-19.6"/><path fill="#333" d="M687.1 2048c12.4-26.3 33.4-61.8 47.6-89.7l80.4-158.2c6.8-13.4 33.1-67 40.7-75.3l-.5.2.4 1.6q-35.3 106.3-72.9 211.9c-12 33.8-25.9 76.8-38.9 109.5z"/><path fill="#868585" d="M1778.2 529.6c31.5 15.1 75.8 37.4 106.3 54.4 4.5 23.9 10.4 47 15.3 70.7a1753 1753 0 0 0-108.4-55.7c-2.8-20-9.3-48.9-13.2-69.4"/><path fill="#9F9E9E" d="M1739.7 336.9c7.9 11.7 18.4 34.4 25.1 47.9l37.4 73.4 20 38.7c2.3 4.4 8.6 16.1 10.1 20.4-14.8-5.9-48.1-24.7-64.1-33.1-10-44.3-21.3-102.5-28.5-147.3"/><path fill="#616161" d="M1366.1 1283c26.3 12.1 58.1 21.4 81.7 32.3l18.6 8.1.2 1a58 58 0 0 0-8.9 18.6l-.5-.1c-2.7 4.6-6.4 11.3-9.4 15.6a2746 2746 0 0 0-71.9-33.2c-2.4-5.7-9.5-36.3-9.8-42.3"/><path fill="#D0CECE" d="m1447.8 1315.3 18.6 8.1.2 1a58 58 0 0 0-8.9 18.6l-.5-.1c-3-6.2-11.7-21.5-9.4-27.6"/><path fill="#333" d="M1466.9 1167c6.9-2.8 32.4-18.8 41.8-23.6-1.8 13.2-7.1 29-8.3 39.8l1.8.6c2.7 13-.4 38.9 4.7 46.7-.8 3.2-1.9 8.2-3.1 11.1-5-3.6-9-6.5-15-8-2.4-.1-31.3-13.6-35.3-15.3 2-7.1 6.9-10.6 8.7-16 3.6-10.3 3.2-24 4.7-35.3"/><path fill="#D3D2D2" d="m1500.4 1183.2 1.8.6c2.7 13-.4 38.9 4.7 46.7-.8 3.2-1.9 8.2-3.1 11.1-5-3.6-9-6.5-15-8-.6-1.1 10.3-44.8 11.6-50.4"/><path fill="#616161" d="m1009.1 932.1 14.8 8-2.1 98.9c-.7 26.7-2.1 56.5-1.9 83l-18.9-10.2c5.5-10.3 2.5-109.9 5.2-128.3 1.8-12.5-1.2-37.6 2.9-51.4"/><path fill="#333" d="M1466.9 1167c-1.5 11.3-1.1 25-4.7 35.3-1.8 5.4-6.7 8.9-8.7 16-11.8-4.5-29.7-13.3-41.8-18.7 17.4-11.1 37.2-21.3 55.2-32.6m252.3-485.9c5 2.7 8.6 5.8 13.4 9 8.9 5.7 20.8 11.3 28.6 18.1l2.3.3-1.1 5.7c-6 3.5-8.7 4.7-15.2 7.3-5.3-3.9-13.5-11.2-18.9-15.7l-1-.1c-3.7-8.5-6.8-15.4-8.1-24.6"/><path fill="#616161" d="M1728.3 705.8c8.8-.8 24 1.1 32.9 2.4l2.3.3-1.1 5.7c-6 3.5-8.7 4.7-15.2 7.3-5.3-3.9-13.5-11.2-18.9-15.7"/><path fill="#9F9E9E" d="M1526.2 629.4c23.3 10.9 44 25.2 66.7 36.8q-29.7-9.5-59.1-19.8l-4.7-1.6c.4-4.3-1.7-10.9-2.9-15.4"/><path fill="#1E1E1E" d="M1699.6 703.6c6.7-8.3 12.1-15 19.6-22.5 1.3 9.2 4.4 16.1 8.1 24.6-2.8-.8-23.5-1.8-27.7-2.1"/><path fill="#616161" d="M1560.8 393.5c.5 4 1.2 8.7 1.4 12.6-7.7-.8-13.4-1.7-21.1-3.1 3.9-1.3 12.5-5.5 16.6-7.4z"/><path fill="#FB6525" d="M1168.4 746.9q69.8 0 139.5 3.8c12.7.8 35 1.6 46.7 4 7.9 1.6 28.2 9.2 36.4 12.2q36.4 13.1 72.6 26.9c12.3 4.6 64.7 23.7 73.7 29.2 19.5 14.7 39.1 29.8 59.5 43 4 6.2 9.4 14.8 13.8 20.7 1.5 2.7 2.3 3.1 1.7 6.1-3.5 17.5-7.8 35.8-11.6 53.2l-24.2 113-15.2 7.7a335 335 0 0 1-10.4-34.1q-9-33.3-17.2-66.9a860 860 0 0 0-28.8-11.4c-5.1-2.1-12.7-4.4-18-6.2-39.3 18.3-78 38.5-117.9 54.7-26.9-12.3-54.3-26.6-81.2-39.6l-154.3-74.1c4.9-15.9 9.1-35.4 13-51.8q10.6-45.3 21.9-90.4"/><path fill="#FEFEFD" d="M1610.6 886.7c1.5 2.7 2.3 3.1 1.7 6.1-3.5 17.5-7.8 35.8-11.6 53.2l-24.2 113-15.2 7.7a335 335 0 0 1-10.4-34.1q-9-33.3-17.2-66.9a860 860 0 0 0-28.8-11.4l.3-2.7c18.3-13.4 36.3-26.4 55.5-38.6 9.3-6 18.5-12.8 28.5-17.4l.2-.7c5.4-1.6 15-5.9 21.2-8.2"/><path fill="#FBCEAE" d="M1505.2 951.6c18.3-13.4 36.3-26.4 55.5-38.6 9.3-6 18.5-12.8 28.5-17.4-3.7 21.2-12.9 51.3-18.6 72.5-4.6 17-12.8 49.3-19.7 64.5q-9-33.3-17.2-66.9a860 860 0 0 0-28.8-11.4z"/><path fill="#FBB080" d="M1537.3 823c19.5 14.7 39.1 29.8 59.5 43 4 6.2 9.4 14.8 13.8 20.7-6.2 2.3-15.8 6.6-21.2 8.2l-.2.7c-10 4.6-19.2 11.4-28.5 17.4a1017 1017 0 0 0-55.5 38.6c10.7-38.9 19.8-92.5 32.1-128.6"/><path fill="#D0CECE" d="M1596.8 866c4 6.2 9.4 14.8 13.8 20.7-6.2 2.3-15.8 6.6-21.2 8.2 2.8-9.1 4.4-19.3 7.4-28.9"/><path fill="#DC551D" d="M569.6 685.9c71.5 1.8 142.7 6.9 214.2 6.1 3.6 0 10.7-.4 13.8.9q5.9 6.1 12 11.9c-5.6 69.8-9.4 139.9-14.8 209.8q-1.3 16.5-2.2 33c-5.4 6-5.8 6.9-13.6 8.6-8.8 4.4-31.1 27-39.9 35.4l-73.6 70.4c-1.3-12.1-5.4-29.7-8.1-41.9l-14.7-66.4c-9.3-42.1-17.5-84.7-26.9-126.8-.5-1.9-.8-2.2-2.2-3.6l1.6-.7v-.4q-3.7-8.5-7-17.2c-14.3-36.9-30.5-73.1-45.1-110 1.4-2.4 4.7-6.7 6.5-9.1"/><path fill="#FB6525" d="M569.6 685.9c71.5 1.8 142.7 6.9 214.2 6.1 3.6 0 10.7-.4 13.8.9l-1.3 3.8c-9.1 11.3-98.2 68.3-115.4 80.2l-43.6 30.3c-4.9 3.4-17.2 12.4-22.1 15q-3.7-8.5-7-17.2c-14.3-36.9-30.5-73.1-45.1-110 1.4-2.4 4.7-6.7 6.5-9.1"/><path fill="#1E1E1E" d="M615.2 822.6a9088 9088 0 0 1 117.7 95.7c7.2 6 39.7 34.3 45 37.4l1.1.5c-8.8 4.4-31.1 27-39.9 35.4l-73.6 70.4c-1.3-12.1-5.4-29.7-8.1-41.9l-14.7-66.4c-9.3-42.1-17.5-84.7-26.9-126.8-.5-1.9-.8-2.2-2.2-3.6z"/><path fill="#FB975F" d="M797.6 692.9q5.9 6.1 12 11.9c-5.6 69.8-9.4 139.9-14.8 209.8q-1.3 16.5-2.2 33c-5.4 6-5.8 6.9-13.6 8.6l-1.1-.5c.1-7.6 1.6-20.5 2.3-28.4q2.6-27 4.5-54l11.6-176.6z"/><path fill="#333" d="M684.4 1417.3c2.5-3.9 2.9-4.2 6.3-7.4l.5.3 1.4-1.8c6.2.4 20 .6 25.2 2 54.7 10.2 110.2 18.7 164.6 28.8 25.7 33.9 49.2 67.9 74.3 101.3l6.4 3.9c5.9 13.1 13.8 37 18.9 50.9q19.8 53 37.6 106.9c-24.6-6.5-49.9-10.3-74.5-16.3-38.4-9.3-77.5-15.7-116-24.4-6.9-13-12.8-29.9-18-43.9q-12.8-33.9-25-68.1c-5-14.4-10.7-32.8-16.4-46.7-3.2.3-7.7.3-11 .4-7.7-13-18.7-23.6-28.5-35.1-15-17.3-31.6-32.9-45.8-50.8"/><path fill="#E0DFDF" d="M684.4 1417.3c2.5-3.9 2.9-4.2 6.3-7.4l.5.3 1.4-1.8c6.2.4 20 .6 25.2 2 54.7 10.2 110.2 18.7 164.6 28.8 25.7 33.9 49.2 67.9 74.3 101.3-12.4-2.6-25.3-8.5-39.2-11.3-49.1-9.7-98.4-18.3-147.6-26.8l-.2.4c-3.2.3-7.7.3-11 .4-7.7-13-18.7-23.6-28.5-35.1-15-17.3-31.6-32.9-45.8-50.8"/><path fill="#333" d="M684.4 1417.3c2.5-3.9 2.9-4.2 6.3-7.4l.5.3 1.4-1.8c1.4 1.8 4.9 6.6 6.4 7.8 23.1 28.3 47.1 58.7 70.9 86.2l-.2.4c-3.2.3-7.7.3-11 .4-7.7-13-18.7-23.6-28.5-35.1-15-17.3-31.6-32.9-45.8-50.8"/><path fill="#9F9E9E" d="M692.6 1408.4c6.2.4 20 .6 25.2 2-1 1.4-1.6 2.5-2.2 4.2-5.3 3.1-10.3 2-16.6 1.6-1.5-1.2-5-6-6.4-7.8"/><path fill="#333" d="M563.1 695c14.6 36.9 30.8 73.1 45.1 110q3.3 8.7 7 17.2v.4l-1.6.7c-53.1 26.8-106.2 63.5-160 88.2 30.2-57.6 57-117.2 88-174.4a667 667 0 0 0 21.5-42.1M728 1264.1c1-.3 4.4-.4 5.6-.6 4.4 1.5 87.1 98.7 98.5 111.6-26.8-6.9-75.7-13.5-103.9-17.6q-32.7-5.4-65.8-9c-8.2-9.3-46.1-57-51.2-66.2l.5-.9c16.7-4 36.3-1.4 52.1-4.2 21-3.8 43-9.5 64.2-13.1m763.9-270c5.8 1.7 14.3 5.7 20 8.3 8.2 33 15.8 68.8 22.7 102.1q-18.5-6.8-36.6-14.2c-.4-30.8-3.8-65.5-6.1-96.2"/></g><defs><clipPath id="clip0_3_2985"><path fill="#fff" d="M0 0h2048v2048H0z"/></clipPath></defs></svg>