<svg xmlns="http://www.w3.org/2000/svg" fill="none" viewBox="0 0 2048 2048"><g clip-path="url(#clip0_3_4453)"><path fill="#FE662C" d="M0 0h2048v2048H0z"/><path fill="#737272" d="m1404 1186.6 6.5 7.9c-2.5 7.4-8.4 15.9-12.7 22.6-3.5 5.4-7.5 11.8-11.3 16.9-3.3-7.1-2.4-17.1-2.1-24.9a84 84 0 0 0 13.3-20.3l1 .6z"/><path fill="#FE662C" d="M0 0h1004c9.1 6.7 45.8 27.8 49.6 31.8 10.4 50.8 20.5 103.7 31.9 154.1 3 12.5-25.6 84.9-19.7 89.7l-3.9.5-1 .2.1.5c-15.6 4.2-48.3 23-65.5 30.1l-.5 1-.7.2-.8.6c-9 18-19.9 34.9-28.8 52.3-3.4 8.9-7 19.2-11.2 27.8l-.9 1.7q3 5.4 6.3 10.7a54 54 0 0 1 19.1-5.5l-.3 1.5-2.2 2.9c2.3 4.7-11.7 76.4-13.2 87.3-1.7 13.1-4.7 36.6-7.3 49.9l-6.7-.2c-10-6.8-47.4-22.2-51-30.1-10.8 9.4-43.3 24.6-56.3 34.6l2.1.9c11 13.8 24 31 34.5 45.3 3.6 10.7 32.7 47.8 40.3 60.1 4.2 6.9 18 28.9 22.8 34.1 18.4 6.4 40.4 9.6 56.8 15.3 7.8.7 79 23.7 82.3 27.8l-49.5 32.5c-4.5 2.9-14.3 10.4-18.3 12.1-1.5-1.6-.9-.6-1.5-2.9l-.8 3.5c-7.3 7-23.3 16.6-31.3 22.2l-2.5 1.4-3.7 1.9-4.1 4.2-13.3 5.9q13.4.1 27 .9L984 819h.8a561 561 0 0 1 33.6 33.6c.5 20.7-2.6 26.3-5.1 45.4l9.5-6.7c7.2 4.8 12.2 8.3 20.8 10.2l1.1 1.4c4.8 0 25.9 9.4 36.2 11.4l-.1 1.8c-4.8 6.3-19.2 17.4-26.1 23-5.3 4.3-28.1 22.5-31.4 26.3-5.1 4.6-9.9 8.8-14.6 13.7 14.1-.8 21.4-2.6 34.8-6.7l3.3 2.4c.1 4.6-3.1 7.6-7.4 8.8-2.6 2.6-6.2 5.7-6.5 9.4l2.9.7c-13.7 1.9-24 3.3-37.9 4.5-3.1 1.1-3 .4-4.2 3-3.3 7.8-5.2 14.3-9.4 21.6-5.9 8.6-11.8 18.7-17.8 27.7l-.6 1.8c-5.6-2.7-11.9-6.4-17.4-9.5q-9.2-4.7-18.3-9.9a1770 1770 0 0 0-92.8-49.7c-6-3.1-28.4-13.8-32.2-16.8-11.5-9.2-26.8-24.1-38-34.4 1.3-5.2 5-13.3 7.3-18.5l7-18.6c-20.9 1.2-39.5.9-60.1 1.6l-142.7 5.4-.9.2c0 5.2.6 5 2.8 9.3 7.1 14 12.1 29.4 18.7 43.7 16.1 34.4 31.1 71.5 49.5 104.7l-52 17.7c-11.7 4-22.4 7-33.9 11.8l-.8-.1c-18.2 5.4-42.6 8.5-61.8 12.9q-37 7.8-73.6 17c-13 3.3-29.3 8.1-41.8 10.7-3.2-1-9.5-1.8-13.1-2.4-5.5-.8-7.9-.9-13.4-.9-5.3 3.3-34.9 22.3-38.5 23.1-22.4 15.7-46.6 29.7-69.2 45.7-1 3.5 13.2 58.8 15.5 66.3a3183 3183 0 0 0-52.6 44.7c-6.8 5.9-27.5 23.1-31.8 29.2l-47.7 25.2c-11.4 5.3-41.9 58.2-52.3 71.4a298 298 0 0 0-15.7 24.7c-21.9 21.9-43.8 41.8-66.1 64.5z"/><path fill="#111" d="M506.4 0H1004c9.1 6.7 45.8 27.8 49.6 31.8 10.4 50.8 20.5 103.7 31.9 154.1 3 12.5-25.6 84.9-19.7 89.7l-3.9.5-1 .2.1.5c-15.6 4.2-48.3 23-65.5 30.1l-.5 1-.7.2-.8.6c-9 18-19.9 34.9-28.8 52.3-3.4 8.9-7 19.2-11.2 27.8l-.9 1.7q3 5.4 6.3 10.7a54 54 0 0 1 19.1-5.5l-.3 1.5-2.2 2.9c2.3 4.7-11.7 76.4-13.2 87.3-1.7 13.1-4.7 36.6-7.3 49.9l-6.7-.2c-10-6.8-47.4-22.2-51-30.1 7.3-12.8 19.8-29.1 28.7-41.3a1289 1289 0 0 1-102.2 78.1l-29.4 19.6-79.2 53.5c-12.8 28.1-30.9 58.6-45.2 86.3 8.2-30.1 16.7-78.9 27.2-104.7l-8.3 7.8a33 33 0 0 1-4.4 3.9c-8.1 6.1-30.2 37.3-37.1 46.7a6036 6036 0 0 0-74.9 107c4.4-59 12.9-120.2 18.4-179.4 1.9-21.7 5-43.9 6.4-65.6 4.2-2.8 16.9-10.6 18.4-14.7-7.5 4.1-29.9 12.7-32.1 14.4-12.4 9.1-30.2 27.5-41.8 38.7l-94.6 93c13.3-39.6 24.7-80.2 38.2-119.8 7.4-21.8 12.5-43.1 22.4-64.1 10.9-23.2 19.9-47.5 30.7-70.7 19.7-13.7 43.4-33.7 63.7-48.8q-38.4 4.2-77 8c-10.7 1-31.4 2.4-41.2 4.7s-30 11.1-40.1 15.2q-30 12.3-60.2 24.2c19.1-13.1 37.1-27.6 56-40.8 13.2-8.9 27.5-16.5 40.8-25.2 24.3-16 48.5-31.6 73.6-46.4-10.8-1.3-60 1.4-73.3 1.8l-87.2 2c-32.1 1-64 2.5-96.2 2.7l175.3-78.5a1690 1690 0 0 0-71.4-91.5l-34.4-40.2c-5.1-6-14.2-16.1-18.1-22.6l19.6 6.8c-21.8-19.3-45.3-37.9-67.9-56.3q13.1 3.2 26.2 6.9c74.4 18.7 147.8 38.6 223.4 51.8 9.3 1.6 18.3 4.7 27.8 6-23.3-24.6-49-50.5-71.5-75.5"/><path fill="#232223" d="M300.5 10.8q13.1 3.1 26.2 6.9c74.4 18.7 147.8 38.6 223.4 51.8 9.3 1.6 18.3 4.7 27.8 6q35.3 38.7 72.5 75.5l93.9-15.7c29.2-5 78.1-17.2 102.3 2.2 25.8 20.7 54.7 46.4 78.7 69.2-14.6 8.5-29.7 15.4-44.2 23.6a1259 1259 0 0 0-93.8 59.7c-3.8 2.6-20.7 20.2-26.1 25.1-26.4 24-52.3 47-76.4 73.4 7.8-17.5 23.4-52.2 28.7-69.6l-18.8 5.9q14.4-34.3 29.2-68.4c11.8-26.8 32.8-63.3 41-90.1a2077 2077 0 0 0-193.7 110.1c-2.4 1.5-15.1 9.5-17.1 10.2-10.8-1.3-60 1.4-73.3 1.8l-87.2 2c-32.1 1-64 2.5-96.2 2.7l175.3-78.5a1690 1690 0 0 0-71.4-91.5l-34.4-40.2c-5.1-6-14.2-16.1-18.1-22.6l19.6 6.8c-21.8-19.3-45.3-37.9-67.9-56.3"/><path fill="#111" d="M300.5 10.8q13.1 3.1 26.2 6.9c5.9 7.5 42 21.9 53.3 27a767 767 0 0 1 70.5 36.1c17.3 9.9 44.6 27.1 62.2 34.2 13.8 5.6 39.8 12.7 54.9 17.1l70.9 20.9c-27.6 6.9-56.5 20.1-84.7 26.5-10.3 2.4-25.2 12.1-35.8 15.2-11.8 5.4-35.3 13.9-45.3 19.9a1690 1690 0 0 0-71.4-91.5l-34.4-40.2c-5.1-6-14.2-16.1-18.1-22.6l19.6 6.8c-21.8-19.3-45.3-37.9-67.9-56.3"/><path fill="#232223" d="M807.5 381.6c-.6 3.7-2.5 7.1-4.2 10.5A1788 1788 0 0 0 709 536c-14.5 24.4-33.1 50.1-46 75.1 4.8-2.1 14.9-7.5 18.9-8.1 4.9 3.6-1.6 3 4.2 4.3l2.8-1a33 33 0 0 1-4.4 3.9c-8.1 6.1-30.2 37.3-37.1 46.7a6036 6036 0 0 0-74.9 107c4.4-59 12.9-120.2 18.4-179.4 1.9-21.7 5-43.9 6.4-65.6 4.2-2.8 16.9-10.6 18.4-14.7l.7-1.1c2.8.2 6.3-.7 8.6-2.3 60-40.5 120.3-82.1 182.5-119.2"/><path fill="#414141" d="M609.8 0h126.9c25.1 7.5 51.2 13.4 76.6 20.1 39.4 10.3 79.5 22.4 119.1 31.3 12.1 22.7 22.8 51.8 33.1 75.5 5.1 11.8 14.9 32.6 17.8 44.5-2.8 1.1-2.8.3-6.4-1-8.4-.6-17.9-.7-25.9-3.4-22.1-7.3-43.7-16.8-65.5-25-7.5-2.9-16.9-6.4-23.7-10.4-32.2-8.3-37.4-13.8-64.2-32.7l-57.1-40.4c-24.7-17.4-31.6-22.2-60.6-31.7-21.4-7-49.1-16.8-69.3-26.4z"/><path fill="#323131" d="M861.8 131.6c17.5-1.1 39.2 13.6 54.1 15.8 27.8 4 28.4-5.7 52.8 15.7l8.2 7.3c-8.4-.6-17.9-.7-25.9-3.4-22.1-7.3-43.7-16.8-65.5-25-7.5-2.9-16.9-6.4-23.7-10.4"/><path fill="#414141" d="M920.2 0h83.8c9.1 6.7 45.8 27.8 49.6 31.8 10.4 50.8 20.5 103.7 31.9 154.1-15.9-12.6-29.4-30-43.2-44.9-41.7-45-78.6-98.3-122.1-141"/><path fill="#323131" d="M912.2 0h8c43.5 42.7 80.4 96 122.1 141 13.8 14.9 27.3 32.3 43.2 44.9 3 12.5-25.6 84.9-19.7 89.7l-3.9.5c-4.6-28.9-29.4-99.3-42.8-125 .1-4.6-5.2-15-10-16.8-3.1-3.5-38.9-43.3-39.4-44.9-9.6-25.6-24.4-41.3-40-63.6C924 17.7 918 8.2 912.2 0"/><path fill="#232223" d="M893.6 331a1906 1906 0 0 1 99.9-22.3c-9 18-19.9 34.9-28.8 52.3-9.8-3.7-40.4 10.2-51.9 13q-39.1 9.1-78.4 17 29.8-29.8 59.2-60m49.3-100.9c23.5 7.1 49.3 17.5 72.7 25.9 5 1.8 14.6 7.7 20.3 10.2q12.4 5.3 25 10.1l.1.5c-15.6 4.2-48.3 23-65.5 30.1l-.5 1-.7.2c-3.3-10.5-15.7-22-21.2-31.2a793 793 0 0 0-30.2-46.8m16 171.1a54 54 0 0 1 19.1-5.5l-.3 1.5-2.2 2.9q-5 7.2-9.6 14.5c-2.7-4.6-4.7-8.7-7-13.4m50.2-266.9c4.8 1.8 10.1 12.2 10 16.8-4.9 1.1-5.3 1.3-9-2-1.9-4.1-1.2-10-1-14.8M807.5 381.6a49 49 0 0 1 10.7-2.5c-3.9 4.1-9.8 11.1-14.9 13 1.7-3.4 3.6-6.8 4.2-10.5"/><path fill="#111" d="M201.5 635.9c35.1-.2 99.1-9.3 128.6 4.3l-7.4 8.7c4 9.4 8.3 19 12 28.5 5 14.8 11 29.6 16.8 44.2 4.7 11.8 10.1 24.6 14.4 36.4 3.6 9.4 17.8 48.3 22.2 54.6v1.9l14.6 38.1a960 960 0 0 1 23 58.5l15.1 38.1c5.6 14.3 16.3 44.4 22.4 57.2 5.1 13.1 10.7 26.6 15.6 39.8 4.6 11.8 16 43.2 21.3 53.2l.2 2.7q-37 7.8-73.6 17c-13 3.3-29.3 8.1-41.8 10.7-3.2-1-9.5-1.8-13.1-2.4-5.5-.8-7.9-.9-13.4-.9-5.3 3.3-34.9 22.3-38.5 23.1-3.5-8.5-8.5-25.6-11.6-34.8q-13.7-42.1-27.9-84.1l-63.8-184.8q-22.2-61.5-45.2-122.7-7.4-.7-14.7-1.9c13.5-29.2 30.7-56.4 44.8-85.4"/><path fill="#232223" d="m423.5 910.8 2.2.3 15.1 38.1c5.6 14.3 16.3 44.4 22.4 57.2 5.1 13.1 10.7 26.6 15.6 39.8-11-1.7-29.6-10.1-43.7-13.4l-7.9-1-5.3-.5c-8.1-1.7-22.8-1.6-31.6-2.1q-36-2-71.8-5.2c-4.5-.4-17.5-.9-20.3-1.4l.8-1c30.3-30.4 56.4-57.5 88.4-86l.7-.7c8.9-7.8 25-17.5 35.4-24.1"/><path fill="#414141" d="M388.1 934.9c2.9.4 4.9.7 7.8 1.4 3.4 9.8 21.8 50.4 22 56.4-4 4.2-12.1 1.4-16.6 2.8-22.9 7.1-46.4 12.7-69.6 18.7-7.7 2-25.6 7.9-32.7 7.4 30.3-30.4 56.4-57.5 88.4-86z"/><path fill="#111" d="M427.2 1031.8c-2.7-.6-2 0-3.9-1.6 7.3-6.7 29.8-20.4 39.9-23.8 5.1 13.1 10.7 26.6 15.6 39.8-11-1.7-29.6-10.1-43.7-13.4zm-3.7-121 2.2.3 15.1 38.1c-5.3.1-36-10.6-44.9-12.9a71 71 0 0 0-7.8-1.4c8.9-7.8 25-17.5 35.4-24.1"/><path fill="#232223" d="M351.5 721.6c4.7 11.8 10.1 24.6 14.4 36.4 3.6 9.4 17.8 48.3 22.2 54.6v1.9l14.6 38.1c-5 0-35-9.5-43.3-11.4l-2.8-.3c-2.2 0-7-.1-8.9.4-3-1.3-17.5-2.1-21.8-2.4q-28-2.4-56.2-4.2c-10.1-.6-27.9-1.3-37.2-3.1l-2.7.1c.1-4.1 44.1-49.1 49-54.1q15.6-15.7 31.5-31.2l2.5-1.7c4.1-4 29.3-18.1 36.3-22.4z"/><path fill="#323131" d="M351.5 721.6c4.7 11.8 10.1 24.6 14.4 36.4 3.6 9.4 17.8 48.3 22.2 54.6-15.5-1.1-28.6-6.8-43.8-10.8-4.4.5-9.7 1.2-14.1 1.3a665 665 0 0 1-51.4-25.5q15.6-15.7 31.5-31.2l2.5-1.7c4.1-4 29.3-18.1 36.3-22.4z"/><path fill="#585757" d="m312.8 744.7 10.2.8c3.5 13.2 10.8 28.8 15.6 41.7 1.3 3.6 5 11.2 5.7 14.6-4.4.5-9.7 1.2-14.1 1.3a665 665 0 0 1-51.4-25.5q15.6-15.7 31.5-31.2z"/><path fill="#111" d="M351.5 721.6c4.7 11.8 10.1 24.6 14.4 36.4-7.7-.3-34.8-9.5-42.9-12.5l-10.2-.8c4.1-4 29.3-18.1 36.3-22.4z"/><path fill="#414141" d="m232.5 831.6-2.7.1c.1-4.1 44.1-49.1 49-54.1 8.7 5.6 41.2 21 51.4 25.5-23.4 6.5-46.1 13.2-69.4 20.4-4.5 1.4-24.8 7.6-28.3 8.1"/><path fill="#111" d="m356.6 840.9-5.4-1.3-.4-.7c6.5-6.9 27.7-23.5 37.3-24.4l14.6 38.1c-5 0-35-9.5-43.3-11.4z"/><path fill="#232223" d="M347.7 841.3c1.9-.5 6.7-.4 8.9-.4l2.8.3c8.3 1.9 38.3 11.4 43.3 11.4a960 960 0 0 1 23 58.5l-2.2-.3c-10.4 6.6-26.5 16.3-35.4 24.1l-.7.7c-5.2-3-103.1-5.2-121.9-9.1l-1.1-.1a1256 1256 0 0 1 52.8-55.6z"/><path fill="#232223" d="M347.7 841.3c1.9-.5 6.7-.4 8.9-.4l2.8.3c8.3 1.9 38.3 11.4 43.3 11.4a960 960 0 0 1 23 58.5l-2.2-.3-8.4-3.1c-8.1-2.1-27.4-6.7-34.2-9.3-4.1-.5-6.4-.2-10.5.1-12.6-4.8-43.1-19.3-53.2-27.7z"/><path fill="#585757" d="M347.7 841.3c1.9-.5 6.7-.4 8.9-.4l2.8.3c2.9 7 6.7 15.4 9.4 22.4 3.4 9.3 9.6 25.6 12.1 34.8-4.1-.5-6.4-.2-10.5.1-12.6-4.8-43.1-19.3-53.2-27.7z"/><path fill="#323131" d="M368.8 863.6c12.1 1.6 37.3 31.2 46.7 41.6l-.4 2.5c-8.1-2.1-27.4-6.7-34.2-9.3-2.5-9.2-8.7-25.5-12.1-34.8"/><path fill="#414141" d="M317.2 870.8c10.1 8.4 40.6 22.9 53.2 27.7q-30 7.2-59.5 16.2c-11.5 3.3-34.2 10.4-45.4 11.8l-1.1-.1a1256 1256 0 0 1 52.8-55.6"/><path fill="#232223" d="m421.9 1031.3 5.3.5 7.9 1c14.1 3.3 32.7 11.7 43.7 13.4 4.6 11.8 16 43.2 21.3 53.2-13-4.4-47.1-17.6-57.3-14.4-24.8 7.8-76.5 18.8-98.3 30 4 .8 19 .7 20.9 1.5-9.1 1.2-18.1-.3-27.2-1.3-3.2.7-3.3.9-6.7.2 1-2.4 48.9-46.7 53.5-50.7 10.5-10.7 25.4-23.5 36.9-33.4"/><path fill="#585757" d="m421.9 1031.3 5.3.5 7.9 1a716 716 0 0 0 18.5 48.4c-2.5 1.2-6.2 1-9 1.1-11.1-3-54.8-10.8-59.6-17.6 10.5-10.7 25.4-23.5 36.9-33.4"/><path fill="#414141" d="M338.2 1115.2c-3.2.7-3.3.9-6.7.2 1-2.4 48.9-46.7 53.5-50.7 4.8 6.8 48.5 14.6 59.6 17.6a1086 1086 0 0 0-106.4 32.9m-38-444.7c10.9 2.8 23.4 6.4 34.5 6.9 5 14.8 11 29.6 16.8 44.2l-2.4.7c-7 4.3-32.2 18.4-36.3 22.4l-2.5 1.7c-4.5-.4-11.1-.3-15.8-.4-7.5-1.6-18-1.3-25.9-1.3a293 293 0 0 0 30.6-67.9c-.2-3.4-.3-3.2 1-6.3"/><path fill="#323131" d="M300.2 670.5c10.9 2.8 23.4 6.4 34.5 6.9 5 14.8 11 29.6 16.8 44.2l-2.4.7c-4.8-5.2-18.5-16.8-24.5-22.4-6.3-5.8-19.6-18.8-25.4-23.1-.2-3.4-.3-3.2 1-6.3"/><path fill="#232223" d="M242.8 694.4c25.1-5.4 35.6-13.6 57.4-23.9-1.3 3.1-1.2 2.9-1 6.3-6.9 21.4-18 49.3-30.6 67.9 7.9 0 18.4-.3 25.9 1.3-10.5 1.1-30.5-1.2-41.6-1.8q-28.6-1.2-57.4-1.2c5.4-5.5 44.9-44.3 46.2-48.3z"/><path fill="#FE662C" d="M225.6 647.2c16.6-.6 44-2.1 60-4.2q-21 26-42.8 51.4l-1.1.3c-15.4.2-38.9 3.1-54.7 4.5 12.7-15.5 26.5-35.5 38.6-52"/><path fill="#DDDBDA" d="m974.2 783.9 2.2.8 2 7.8-2.5 1.4-3.7 1.9-4.1 4.2-13.3 5.9q13.4.1 27 .9L984 819h.8a561 561 0 0 1 33.6 33.6c.5 20.7-2.6 26.3-5.1 45.4l9.5-6.7c7.2 4.8 12.2 8.3 20.8 10.2l1.1 1.4c4.8 0 25.9 9.4 36.2 11.4l-.1 1.8c-4.8 6.3-19.2 17.4-26.1 23-5.3 4.3-28.1 22.5-31.4 26.3-5.1 4.6-9.9 8.8-14.6 13.7 14.1-.8 21.4-2.6 34.8-6.7l3.3 2.4c.1 4.6-3.1 7.6-7.4 8.8-2.6 2.6-6.2 5.7-6.5 9.4l2.9.7c-13.7 1.9-24 3.3-37.9 4.5-3.1 1.1-3 .4-4.2 3-3.3 7.8-5.2 14.3-9.4 21.6-5.9 8.6-11.8 18.7-17.8 27.7l-.6 1.8c-5.6-2.7-11.9-6.4-17.4-9.5q-9.2-4.7-18.3-9.9a1770 1770 0 0 0-92.8-49.7 275 275 0 0 1 23.6-31q14.2-19.9 29.2-39.2l13.9-17.5c-3-4.3-14.2-19.7-17.2-25.8a756 756 0 0 1-29.4-67.7l.7-2.8 1.5 2.1c7.9 1.1 14.1-1 20-.1l.8.8c2.6-2.5 3-1.7 7.4-2.4 8.3 5.9 14.9 6 23.2 12 7.2-7.4 13.7-14 19.9-22.3q7 .4 13.9.5c6.3-.8 9.9-.7 16.2-.7 3.8-.2 5.5-1.1 8.6-3.1z"/><path fill="#B1AEAD" d="M890.2 913c4.5 3.1 19.6 15.2 22.3 16a612 612 0 0 1 23.1 56c.8 5 1.5 10.4 2.8 15.3-2.7 10.3-6.5 22.4-8.2 32.6a1770 1770 0 0 0-92.8-49.7 275 275 0 0 1 23.6-31q14.2-19.9 29.2-39.2"/><path fill="#737272" d="M890.2 913c4.5 3.1 19.6 15.2 22.3 16-10.6 6.5-39.9 23.3-51.5 23.2q14.2-19.9 29.2-39.2"/><path fill="#484545" d="M904.1 895.5c8.9 13 18 25.8 26.2 39.2q26.4 1.6 52.9 2.1.8 34.4-.3 68.6c.4 4.6 0 14.2 1.4 17.4-5.9 8.6-11.8 18.7-17.8 27.7l-.6 1.8c-5.6-2.7-11.9-6.4-17.4-9.5q-9.2-4.7-18.3-9.9c1.7-10.2 5.5-22.3 8.2-32.6-1.3-4.9-2-10.3-2.8-15.3a612 612 0 0 0-23.1-56c-2.7-.8-17.8-12.9-22.3-16z"/><path fill="#82807F" d="M970.5 975c4.2 12.2 10.6 18.1 12.4 30.4.4 4.6 0 14.2 1.4 17.4-5.9 8.6-11.8 18.7-17.8 27.7l-.6 1.8c-5.6-2.7-11.9-6.4-17.4-9.5q-9.2-4.7-18.3-9.9c1.7-10.2 5.5-22.3 8.2-32.6-1.3-4.9-2-10.3-2.8-15.3q17.3-5.5 34.9-10"/><path fill="#A39E9D" d="M938.4 1000.3a654 654 0 0 0 10.1 42.5q-9.2-4.7-18.3-9.9c1.7-10.2 5.5-22.3 8.2-32.6"/><path fill="#414141" d="m974.2 783.9 2.2.8 2 7.8-2.5 1.4-3.7 1.9-4.1 4.2-13.3 5.9q13.4.1 27 .9L984 819c-6.2 5.3-14.5 15.7-19.9 22.3a225 225 0 0 1 15.5 46.5c-15.3-8.7-16.7-11.4-29.4-22.3-3.4-3.7-14.5-9.2-19.5-11.8-7.7-14.2-9.4-25.9-19.6-42.1 7.2-7.4 13.7-14 19.9-22.3q7 .4 13.9.5c6.3-.8 9.9-.7 16.2-.7 3.8-.2 5.5-1.1 8.6-3.1z"/><path fill="#585757" d="m974.2 783.9 2.2.8 2 7.8-2.5 1.4-3.7 1.9-9.8-5.8q-8.7.1-17.5-.2c6.3-.8 9.9-.7 16.2-.7 3.8-.2 5.5-1.1 8.6-3.1z"/><path fill="#5E5858" d="m974.2 783.9 2.2.8 2 7.8-2.5 1.4c-2.2-4.3-2.5-4.9-6.2-7.9z"/><path fill="#232223" d="M1022.8 891.3c7.2 4.8 12.2 8.3 20.8 10.2l1.1 1.4c4.8 0 25.9 9.4 36.2 11.4l-.1 1.8c-4.8 6.3-19.2 17.4-26.1 23-5.3 4.3-28.1 22.5-31.4 26.3-5.1 4.6-9.9 8.8-14.6 13.7-4.5 3.1-8 6.6-11.9 10.3 5-19.4 8.2-35.6 11.7-55.2 2.2-11.6 2.6-23.7 4.8-36.2z"/><path fill="#111" d="M1022.8 891.3c7.2 4.8 12.2 8.3 20.8 10.2l1.1 1.4c-12.3 13.3-19.9 23.2-36.2 31.3 2.2-11.6 2.6-23.7 4.8-36.2z"/><path fill="#ACA5A4" d="M887.9 799.6c8.3 5.9 14.9 6 23.2 12 10.2 16.2 11.9 27.9 19.6 42.1 5 2.6 16.1 8.1 19.5 11.8l-.3 1.5-7.4-4.9q-14.7.6-29.4 1.6c-10.5-12.7-25.3-46-32.6-61.7 2.6-2.5 3-1.7 7.4-2.4"/><path fill="#969494" d="m1046.3 975.9-6.9 7.7c-2.6 2.6-6.2 5.7-6.5 9.4l2.9.7c-13.7 1.9-24 3.3-37.9 4.5 20.3-11.4 21.7-15.8 48.4-22.3"/><path fill="#111" d="m841 541.6 2.1.9c11 13.8 24 31 34.5 45.3 3.6 10.7 32.7 47.8 40.3 60.1 4.2 6.9 18 28.9 22.8 34.1 18.4 6.4 40.4 9.6 56.8 15.3 7.8.7 79 23.7 82.3 27.8l-49.5 32.5c-4.5 2.9-14.3 10.4-18.3 12.1-1.5-1.6-.9-.6-1.5-2.9l-.8 3.5c-7.3 7-23.3 16.6-31.3 22.2l-2-7.8-2.2-.8-4.5 2.1c-3.1 2-4.8 2.9-8.6 3.1-6.3 0-9.9-.1-16.2.7q-6.9-.1-13.9-.5c-6.2 8.3-12.7 14.9-19.9 22.3-8.3-6-14.9-6.1-23.2-12-4.4.7-4.8-.1-7.4 2.4l-.8-.8c-5.9-.9-12.1 1.2-20 .1l-1.5-2.1 6.6-20.4q7.4-21 15.1-41.8l10.1-6.4c-13.8-9.8-72.2-16.8-94.4-28.7q-17.7-34.5-34.2-69.8c20.4-11.3 44.2-25.5 64.7-35.4 4.7-17.4 11.3-37.9 14.9-55.1"/><path fill="#CCC9C9" d="M944 698.1c1.8 5.2.9 9.9 2.2 13.8a298 298 0 0 0 17.6 38.6c-1.6 1.5-.6 1-3 1.4a108 108 0 0 1 13.1 18.9c.3 5.5 1.2 8.7 2.5 13.9l-2.2-.8-4.5 2.1c-3.1 2-4.8 2.9-8.6 3.1-6.3 0-9.9-.1-16.2.7q-6.9-.1-13.9-.5c-6.2 8.3-12.7 14.9-19.9 22.3-8.3-6-14.9-6.1-23.2-12-4.4.7-4.8-.1-7.4 2.4l-.8-.8c-5.9-.9-12.1 1.2-20 .1l-1.5-2.1 6.6-20.4q7.4-21 15.1-41.8l10.1-6.4a1485 1485 0 0 1 54-32.5"/><path fill="#5E5858" d="M908 743.4c12.1-5.7 20.9-8.9 33.4-13.7q9.6 11.2 19.4 22.2a108 108 0 0 1 13.1 18.9c.3 5.5 1.2 8.7 2.5 13.9l-2.2-.8-4.5 2.1c-3.1 2-4.8 2.9-8.6 3.1-6.3 0-9.9-.1-16.2.7q-6.9-.1-13.9-.5c-1.6-5-5.5-13.4-7.7-18.5l-8.4-8-1.2-.4c-5.4-2.9-13.3-8.7-17.8-12.8 4.8-3.1 6.9-4 12.1-6.2"/><path fill="#B1AEAD" d="m927.2 771.1 7.9 2c8.6 3.8 20.2 8.5 26 16-6.3 0-9.9-.1-16.2.7q-6.9-.1-13.9-.5c-1.6-5-5.5-13.4-7.7-18.5z"/><path fill="#82807F" d="M958.2 773.2q8-1 15.7-2.4c.3 5.5 1.2 8.7 2.5 13.9l-2.2-.8-4.5 2.1c-3.1 2-4.8 2.9-8.6 3.1-5.8-7.5-17.4-12.2-26-16 7.5 0 15.7.2 23.1.1"/><path fill="#737272" d="M958.2 773.2q8-1 15.7-2.4c.3 5.5 1.2 8.7 2.5 13.9l-2.2-.8c-5.8-2.5-10.8-6.8-16-10.7"/><path fill="#969494" d="M895.9 749.6c4.8-3.1 6.9-4 12.1-6.2 4.5 2.9 5.2 3.4 10.5 4.4 3.7.9 5 .9 8.9.6-2.4 8.7-6.2 7.7-13.7 14-5.4-2.9-13.3-8.7-17.8-12.8"/><path fill="#9B9392" d="M918.5 747.8c7.2-1.1 13.5-.5 20.3-2.5-4.5 8.7-8.6 16.3-11.6 25.8l-3.9-.3-8.4-8-1.2-.4c7.5-6.3 11.3-5.3 13.7-14-3.9.3-5.2.3-8.9-.6"/><path fill="#DDDBDA" d="m914.9 762.8 8.4 8c2.2 5.1 6.1 13.5 7.7 18.5-6.2 8.3-12.7 14.9-19.9 22.3-8.3-6-14.9-6.1-23.2-12a128 128 0 0 0 27-36.8"/><path fill="#A39E9D" d="M879.7 801.2c3.9-10.5 13.1-45.9 16.2-51.6 4.5 4.1 12.4 9.9 17.8 12.8l1.2.4a128 128 0 0 1-27 36.8c-4.4.7-4.8-.1-7.4 2.4zM944 698.1c4.4.3 57 54.6 65.4 62.5.7 2.6.8 3.5 1.1 6.2l-.8 3.5c-7.3 7-23.3 16.6-31.3 22.2l-2-7.8c-1.3-5.2-2.2-8.4-2.5-13.9a108 108 0 0 0-13.1-18.9c2.4-.4 1.4.1 3-1.4a298 298 0 0 1-17.6-38.6c-1.3-3.9-.4-8.6-2.2-13.8"/><path fill="#111" d="M728.1 680.1c8.3 3.2 61.2 22.1 67.5 21.8 22.2 11.9 80.6 18.9 94.4 28.7l-10.1 6.4q-7.7 20.8-15.1 41.8l-6.6 20.4-.7 2.8a756 756 0 0 0 29.4 67.7c3 6.1 14.2 21.5 17.2 25.8L890.2 913q-15 19.3-29.2 39.2c-9 10.7-16 19.1-23.6 31-6-3.1-28.4-13.8-32.2-16.8-11.5-9.2-26.8-24.1-38-34.4 1.3-5.2 5-13.3 7.3-18.5l7-18.6c.9-2.4.9-2.2 1-4.7-11.4-6.6-66-22.1-80.7-26.1 29.6-15.2 52-27.9 80.9-44.5-16.1-43.4-34.8-87-50.4-129.7z"/><path fill="#232223" d="M728.1 680.1c8.3 3.2 61.2 22.1 67.5 21.8 22.2 11.9 80.6 18.9 94.4 28.7l-10.1 6.4q-7.7 20.8-15.1 41.8c-3.9-5.4-57.5-22.9-69.6-29.3-13.5-7-54.4-62.9-62.9-59.6zM232.8 527.3c2.4-2.4 3.9-3.7 7.3-3.6l-.3 1.4a75 75 0 0 0 18.2 18.7l2.8.3c20.2 14 31.2 38.7 46.4 57.6 7 8.6 13.9 20.7 21.6 28.3 1 3 2.7 7 1.8 9.8l-.5.4c-29.5-13.6-93.5-4.5-128.6-4.3-14.1 29-31.3 56.2-44.8 85.4-16.9-23.2-32.8-47.1-49.7-70.3-2.7-3.7-6.9-9-8.7-13l1.2-1.1c5-9.3 30.5-45 39-49.5 10.5 1.5 43.3-6.6 60.9-5.8l5-1.6 1.7-1.3c-.3-6.7 22.6-39.6 26.7-51.4"/><path fill="#585757" d="M232.8 527.3c2.4-2.4 3.9-3.7 7.3-3.6l-.3 1.4a75 75 0 0 0 18.2 18.7l-.1.8c8.4 26.9 23 60.1 33.4 87.6-18.5-12.6-39.6-24.5-58.8-36.1-9.5-5.7-18.6-9.6-28.1-16.1l1.7-1.3c-.3-6.7 22.6-39.6 26.7-51.4"/><path fill="#B1AEAD" d="M232.8 527.3c2.4-2.4 3.9-3.7 7.3-3.6l-.3 1.4a75 75 0 0 0 18.2 18.7l-.1.8c-16.9 10.5-34.8 23.1-51.8 34.1-.3-6.7 22.6-39.6 26.7-51.4"/><path fill="#737272" d="M138.5 587.4c10.5 1.5 43.3-6.6 60.9-5.8-19.9 12.1-42 23.8-62.4 35.2-11 6.1-26.4 15-37.5 20.1 5-9.3 30.5-45 39-49.5"/><path fill="#A39E9D" d="M577.8 902.1c0 5.2.6 5 2.8 9.3 7.1 14 12.1 29.4 18.7 43.7 16.1 34.4 31.1 71.5 49.5 104.7l-52 17.7c-11.7 4-22.4 7-33.9 11.8l-.8-.1c-.3-8.2 1.2-20.8 1.9-29.2q2.2-24.6 4.1-49.2l5.7-71.6c.6-8.2 2.1-30.5 4-37.1"/><path fill="#585757" d="M306.1 529c3.3 2.1 20.9 89.9 22.7 101-7.7-7.6-14.6-19.7-21.6-28.3-15.2-18.9-26.2-43.6-46.4-57.6q9.4-2.1 18.4-5.1c7.6-2.2 15.4-5.1 23-7.8z"/><path fill="#585757" d="M279.2 539c7.6-2.2 15.4-5.1 23-7.8-3.7 10.6-13.7 14.3-23 7.8"/><path fill="#969494" d="M138.5 587.4c3.9-2.9 9.5-6.2 13.7-8.8 26.9-16.8 53.3-35.3 80.6-51.3-4.1 11.8-27 44.7-26.7 51.4l-1.7 1.3-5 1.6c-17.6-.8-50.4 7.3-60.9 5.8"/><path fill="#CCC9C9" d="M240.1 523.7q33 1.8 66 5.3l-3.9 2.2c-7.6 2.7-15.4 5.6-23 7.8q-9 3-18.4 5.1l-2.8-.3a75 75 0 0 1-18.2-18.7z"/><path fill="#111" d="m389.3 1232.6 2.7 1.2 11.8 4.1c5.3 2.1 10.3 4 15.3 6.6 13 4.7 24.2 9.4 36.9 14.7 14.7 5.9 27.8 12 42.2 18.4 3.2 1.2 12.3 4.8 15.1 6.8q23.2 10.2 46.5 20.1l3.3 1 1.4 1c30.7 12.5 61.7 26.5 92.4 39.3 15.3 6.4 44.1 17.7 57.8 25l1 .2c10.3 8.4 26.2 16.4 37.7 23.8 28.3 18.3 61.9 35.6 89.7 53.7 3.1 1.4 8 3.8 10.1 6.5 35.7 34.8 76.7 75 110.7 111 1.9 14 12.4 30.6 13.1 44.7l2.5 2.5c32.2 30.7 61.2 65.3 91.7 97.9 4.6 4.8 30.1 30.1 32.1 33.2l.4.5L1218 2048H0v-526.7c22.3-22.7 44.2-42.6 66.1-64.5a298 298 0 0 1 15.7-24.7c10.4-13.2 40.9-66.1 52.3-71.4l47.7-25.2c4.3-6.1 25-23.3 31.8-29.2q26-22.6 52.6-44.7a1851 1851 0 0 0 51.9-11.7c8.3-2.1 58.9-15.8 63.6-14.4l6.4-2.6z"/><path fill="#111" d="m212.8 1582.6 1.6-.8c35.1-7.5 72.1-17.1 107.4-22.6 3.8-.7 23.9 7.2 27.8 8.6 50.6 15.9 103.4 36.5 153.9 53.3 18.3 6.1 40.2 15.1 58.1 20.4l1.1-.5c17 20.2 35.7 39.3 53 59.2 3.6 4.1 7.5 8.6 11.4 12.4 18.8 21.6 38.3 44.3 57.8 65.3l.9 2c2.1 29.3 7.7 55.8 12.3 84.7 1.3 8 4.9 29.5 4.8 37.2 2.7 7.5 7 37.5 8.5 46.6l16.9 99.6H0v-406.3c16.2-3.9 35.6-10 51.9-14.6l106-30.1c9.4-2.6 48.8-14.5 54.9-14.4"/><path fill="#414141" d="m307.9 1650.8 5.2-.5c2.4 2.2 3.8 8.9 5.3 12.5q11.3 29.4 22.9 58.7 34.5 85.8 71.5 170.6c-3.3 1.1-16.3-5-22.1-6.6-5.6-3.3-18.3-8.5-24.7-11.3l-45.5-19.9a9403 9403 0 0 0-160.3-68.4l.3-1.9c7.6-32.5 18.5-63.8 26-97.3l.9-.1 2.7-9.6c.1.4-.6 5.8-.7 6.6 3.4.5 102.9-30.3 118.5-32.8"/><path fill="#585757" d="M313.4 1650.9c-12.5 12.6-145.5 131.8-152.9 133.1 7.6-32.5 18.5-63.8 26-97.3l.9-.1c42.4-12.6 83.5-23.8 126-35.7"/><path fill="#232223" d="M482.9 2048q17.4-35.7 33.8-71.9c8.7-19.1 13-32.6 25.9-49.4 24.9-32.2 48.7-65.9 74.6-97.3a4208 4208 0 0 0 55 218.6zm-175-397.2c7.4-3.2 12.7.7 19.5 5.3 7.4 5 17.9 5.4 24 8 21.4 9 46 32.8 66.5 42.1 23.9 10.9 78.4 54.3 99.9 60.7-26.7 40.1-60.2 92.3-88.2 129.5-4.3-.4-12.5-.8-15.8-2.9l-1-1.4a6204 6204 0 0 1-71.5-170.6q-11.6-29.3-22.9-58.7c-1.5-3.6-2.9-10.3-5.3-12.5z"/><path fill="#323131" d="M45.8 1724.9c46.4-11.1 93.3-26.6 140.7-38.2-7.5 33.5-18.4 64.8-26 97.3l-.3 1.9c-49.6 27.6-97.2 58.6-145.8 87.7-4.3 2.5-9.9 6.3-14.4 8.3v-78.8c15.1-22.4 32-54.5 45.8-78.2"/><path fill="#CCC9C9" d="m212.8 1582.6 1.6-.8c35.1-7.5 72.1-17.1 107.4-22.6 3.8-.7 23.9 7.2 27.8 8.6 50.6 15.9 103.4 36.5 153.9 53.3 18.3 6.1 40.2 15.1 58.1 20.4a323 323 0 0 1-29.3 19.1c-11.3 6.8-25.1 16.5-36.3 22.8-20.2-8.1-41.9-15.3-62.4-22.9q-109.8-40.5-220.8-77.9"/><path fill="#737272" d="m561.6 1641.5 1.1-.5c17 20.2 35.7 39.3 53 59.2 3.6 4.1 7.5 8.6 11.4 12.4 18.8 21.6 38.3 44.3 57.8 65.3-8.2 5.6-60.7 27.3-71.1 28.9L496 1683.4c11.2-6.3 25-16 36.3-22.8 7-4.2 24-14.5 29.3-19.1"/><path fill="#323131" d="M525.6 1751.8c16 16.4 29.9 35.8 46.4 52.7-30.8 45.6-72.4 100-105.5 144-15.9-12.4-64.3-49.3-75.8-63 5.8 1.6 18.8 7.7 22.1 6.6l1 1.4c3.3 2.1 11.5 2.5 15.8 2.9 28-37.2 61.5-89.4 88.2-129.5 2.5-4.8 5.5-10.2 7.8-15.1"/><path fill="#585757" d="m684.9 1777.9.9 2c2.1 29.3 7.7 55.8 12.3 84.7 1.3 8 4.9 29.5 4.8 37.2-27.6-31.1-60.3-64.1-89.1-95 10.4-1.6 62.9-23.3 71.1-28.9"/><path fill="#545354" d="m389.3 1232.6 2.7 1.2 11.8 4.1c5.3 2.1 10.3 4 15.3 6.6 13 4.7 24.2 9.4 36.9 14.7 14.7 5.9 27.8 12 42.2 18.4 3.2 1.2 12.3 4.8 15.1 6.8q23.2 10.2 46.5 20.1l3.3 1 1.4 1 .8 2.6c5.6 17.8 31.6 58.4 41.9 76.6 2.9 5.2 12 18.3 13.7 22.8l-.8.9c-6.8 5.4-71 29.3-84.4 35.4-13.7-7.8-185.7-28.9-216-34-2.1 0-14.4-1.3-17.8-1.6l-45-3.1-54.3-3.6c-11.4-.7-24.4-1.1-35.5-2.9-5.1.9-18.7 12.5-23.9 16.5a3117 3117 0 0 0-44.6 34.8c-32.3 25.6-67 51.4-98.6 77.3v-6.9c22.3-22.7 44.2-42.6 66.1-64.5a298 298 0 0 1 15.7-24.7c10.4-13.2 40.9-66.1 52.3-71.4l47.7-25.2c4.3-6.1 25-23.3 31.8-29.2q26-22.6 52.6-44.7a1851 1851 0 0 0 51.9-11.7c8.3-2.1 58.9-15.8 63.6-14.4l6.4-2.6z"/><path fill="#111" d="m381.7 1235.5 6.4-2.6a1154 1154 0 0 1-37 85.5c-3.8 8.1-8.5 16.8-11.7 25.1-9 2.3-74.4 12.3-82.2 12.5-13.2-7-111.4 11.3-123.1 4.7l47.7-25.2c4.3-6.1 25-23.3 31.8-29.2q26-22.6 52.6-44.7a1851 1851 0 0 0 51.9-11.7c8.3-2.1 58.9-15.8 63.6-14.4"/><path fill="#CCC9C9" d="M266.2 1261.6a1851 1851 0 0 0 51.9-11.7c8.3-2.1 58.9-15.8 63.6-14.4-46 21.7-89.1 43.3-134.3 66.6-18.7 9.7-47.1 25.3-65.6 33.4 4.3-6.1 25-23.3 31.8-29.2q26-22.6 52.6-44.7"/><path fill="#414141" d="m389.3 1232.6 2.7 1.2 11.8 4.1c5.3 2.1 10.3 4 15.3 6.6 13 4.7 24.2 9.4 36.9 14.7 14.7 5.9 27.8 12 42.2 18.4 3.2 1.2 12.3 4.8 15.1 6.8q23.2 10.2 46.5 20.1l3.3 1c-6 3.7-197.7 32.8-223.7 38 3.2-8.3 7.9-17 11.7-25.1a1154 1154 0 0 0 37-85.5z"/><path fill="#111" d="m498.2 1277.6-2.8 1.4c-12.6-4.7-28.9-12.7-41.7-17.8-7.6-3.1-29-11.7-34.6-15.1v-1.6c13 4.7 24.2 9.4 36.9 14.7 14.7 5.9 27.8 12 42.2 18.4m15.1 6.8q23.2 10.2 46.5 20.1l-1.2.7c-5.9.2-43-16.1-45.3-20.8"/><path fill="#CCC9C9" d="M403.7 1386.8c8.1.4 15.2.7 23.3 1.7l81.3 7.6c13.9 1.2 32 2 45.3 3.7 23 3 42.8 8.2 66.5 9.6-6.8 5.4-71 29.3-84.4 35.4-13.7-7.8-185.7-28.9-216-34l5.6-1.7c9.8-2.9 32-5.9 43.6-8.1a64 64 0 0 0 28.7-12.7c1.8-1.7 3.1-1.2 6.1-1.5"/><path fill="#B1AEAD" d="M403.7 1386.8c8.1.4 15.2.7 23.3 1.7-15.2 5-42.4 14.8-58.1 12.5a64 64 0 0 0 28.7-12.7c1.8-1.7 3.1-1.2 6.1-1.5"/><path fill="#A39E9D" d="M167.1 1399.6c35.5-12.6 108-17.4 146.9-20.7 4.5-.4 86.5 6.9 89.7 7.9-3 .3-4.3-.2-6.1 1.5a64 64 0 0 1-28.7 12.7c-11.6 2.2-33.8 5.2-43.6 8.1l-5.6 1.7c-2.1 0-14.4-1.3-17.8-1.6l-45-3.1-54.3-3.6c-11.4-.7-24.4-1.1-35.5-2.9"/><path fill="#232223" d="M134.1 1360.7c11.7 6.6 109.9-11.7 123.1-4.7-14.3 3.3-73.9 13.9-87.4 14.2a3501 3501 0 0 0-46.4 38.4c-7.9 6.8-50.6 45.2-57.3 48.2a298 298 0 0 1 15.7-24.7c10.4-13.2 40.9-66.1 52.3-71.4"/><path fill="#323131" d="M875.4 1486.8c12.6 12.5 24.8 30.2 36.2 44 21.4 26 43 54.9 65.4 79.9l2.5 2.5c32.2 30.7 61.2 65.3 91.7 97.9 4.6 4.8 30.1 30.1 32.1 33.2l.4.5L1218 2048h-161.5c7.3-22.7 14.3-57.5 20.8-81.6 3.8-13.9 15.7-57.2 17.2-69.3q-11.7-32-23.7-63.7c-2.2-5.8-8.8-24.5-11.5-29.2l-1.6.8c-16.3-5.8-85.2-63.8-104.1-77.5-5.1-3.6-14.6-12.9-19-15.1l-1.2 1.3c-1.3-3.1-14.1-52.4-14.1-52.4-.6-20-52.3-159-52-160.7 3-2.2 2.8-2.3 6.6-2.9-.5 3-.8 3.9-.3 6.9 1.6-1.8 1.6-14.3 1.8-17.8"/><path fill="#232223" d="M1094.5 1897.1c2.7 6.2 11.8 19.4 16 26q16.6 26.5 32.5 53.5c3.3 5.4 13.8 22.7 15.9 28.1 4.9 15 8.5 28.1 12.6 43.3h-115c7.3-22.7 14.3-57.5 20.8-81.6 3.8-13.9 15.7-57.2 17.2-69.3"/><path fill="#111" d="M1103.2 2048c13.8-13 40-31.5 55.7-43.3 4.9 15 8.5 28.1 12.6 43.3z"/><path fill="#585757" d="M979.5 1613.2c32.2 30.7 61.2 65.3 91.7 97.9 4.6 4.8 30.1 30.1 32.1 33.2-5.7 3.6-38 49.7-44.4 58.4q-22.8-55.5-46.8-110.5c-9.3-21.1-27.4-58.6-32.6-79"/><path fill="#414141" d="M784.6 1538.2c15.9 27.6 30.4 61.9 45.9 90.2 6.1 11.3 12.2 27.4 18.7 38 3.6 9.6 16.6 36.6 15.2 43.6 6.1 7.9 18.6 24.9 25.5 31.3l.2 1 2.1 3.2-.7 2.3c-5.9-1.4-30.9 10.7-38.9 12.7-6.2 22.6-12 46.3-19 68.6.4 11.1-19.3 69.5-23.9 82.6l-103.4-150.6-27.9-40.8c-4.9-7.2-12.7-17.8-16.5-25.3 14.8-20.4 39.4-48.8 56-69.5q10.7-14.4 21.8-28.3l1.4-1.7c2.1-5.7 37.5-50.1 43.5-57.3"/><path fill="#232223" d="M749.1 1733.3c-2-5.9 23.2-49.5 28.6-52.5 16.1 18.6 36 36.9 52.5 55.5 6.3 7.2 17.1 16.5 22.4 24.2-6.2 22.6-12 46.3-19 68.6a391 391 0 0 0-47.1-56.2c-12.3-13-24.4-27.3-37.4-39.6"/><path fill="#111" d="M749.1 1733.3c-2-5.9 23.2-49.5 28.6-52.5l2 16.9c-8 9.3-22.1 33.4-30.6 35.6"/><path fill="#232223" d="M784.6 1538.2c15.9 27.6 30.4 61.9 45.9 90.2 6.1 11.3 12.2 27.4 18.7 38 3.6 9.6 16.6 36.6 15.2 43.6q-5.4-6-10.3-12.2c-20.5-24.6-40.1-49.9-61-74.1-5.6 1.9-18.7 2-26.1 3.5l-.9-.2a53 53 0 0 0-6.3 6.2c-6.8-2.9-20.6.6-27.6-2.2-1.7-2.4-10.7-4.4-14.3-5.5q10.7-14.4 21.8-28.3l1.4-1.7c2.1-5.7 37.5-50.1 43.5-57.3"/><path fill="#B1AEAD" d="M741.1 1595.5c7.1-3 14.2-6.2 21.4-8.7.4 14.8 1.5 25.3 3.6 40.2a53 53 0 0 0-6.3 6.2c-6.8-2.9-20.6.6-27.6-2.2-1.7-2.4-10.7-4.4-14.3-5.5q10.7-14.4 21.8-28.3z"/><path fill="#969494" d="M762.5 1586.8c10.6 12.1 20.2 24.7 30.6 36.9-5.6 1.9-18.7 2-26.1 3.5l-.9-.2a323 323 0 0 1-3.6-40.2"/><path fill="#CCC9C9" d="M717.9 1625.5c3.6 1.1 12.6 3.1 14.3 5.5-.2 7.2-.8 28.3.6 34.8l-24.3 31.1c-15-1.4-31.4-1.4-46.6-1.9 14.8-20.4 39.4-48.8 56-69.5"/><path fill="#7F7E7E" d="M793.1 1623.7c20.9 24.2 40.5 49.5 61 74.1q5 6.2 10.3 12.2c6.1 7.9 18.6 24.9 25.5 31.3l.2 1-1.1.9c-3.8-1.2-16.2-13.1-20.4-16.5a502 502 0 0 0-35.5-26.4c-12.9-8.6-21-21.9-31-33.5l-35.1-39.6c7.4-1.5 20.5-1.6 26.1-3.5"/><path fill="#CCC9C9" d="M732.2 1631c7 2.8 20.8-.7 27.6 2.2-8 9.5-20 22.9-27 32.6-1.4-6.5-.8-27.6-.6-34.8"/><path fill="#585757" d="M130.2 1500.6c11.4-4.2 31.9-21.3 39.8-24.3 45.8-17.4 95.8-37.7 142.3-53 3.7-1.3 31.1 5.5 35.8 6.9-8.6.8-24.8-3.7-33.9-5.9 4.3 13.4 6.9 28.7 10.3 42.6l25.1 100.9c-3.9-1.4-24-9.3-27.8-8.6-35.3 5.5-72.3 15.1-107.4 22.6l-1.6.8c-6.1-.1-45.5 11.8-54.9 14.4l-106 30.1c-16.3 4.6-35.7 10.7-51.9 14.6v-87.3a8509 8509 0 0 0 87.3-37.9c7.8-3.3 35.9-16.8 42.9-15.9"/><path fill="#232223" d="M0 1554.4a8509 8509 0 0 0 87.3-37.9c7.8-3.3 35.9-16.8 42.9-15.9-8.4 6.1-19 12.1-27.9 17.5-26.5 15.8-51.7 33-77.3 50.1-7.2 4.8-17.5 12.1-25 15.8z"/><path fill="#313031" d="M564.5 1306.5c30.7 12.5 61.7 26.5 92.4 39.3 15.3 6.4 44.1 17.7 57.8 25l1 .2c10.3 8.4 26.2 16.4 37.7 23.8 28.3 18.3 61.9 35.6 89.7 53.7 3.1 1.4 8 3.8 10.1 6.5-3.4 8.5 15.6 141.5 15.8 164-12.1 11.6-16.8 31.1-19.8 47.4-6.5-10.6-12.6-26.7-18.7-38-15.5-28.3-30-62.6-45.9-90.2l-100.3-79.8c-15-12.1-49-40.7-63.4-49.9-1.7-4.5-10.8-17.6-13.7-22.8-10.3-18.2-36.3-58.8-41.9-76.6z"/><path fill="#111" d="M564.5 1306.5c30.7 12.5 61.7 26.5 92.4 39.3 15.3 6.4 44.1 17.7 57.8 25l1 .2c10.3 8.4 26.2 16.4 37.7 23.8 28.3 18.3 61.9 35.6 89.7 53.7-11 2.4-50.3-8.2-63.3-10.7a900 900 0 0 1-98-24.5c-3.6-1.1-23.3-20.5-27.8-24.8a2555 2555 0 0 0-64.3-58.7c-7-6.2-16.9-15.9-24.4-20.7z"/><path fill="#5D5C5C" d="M314.2 1424.3c9.1 2.2 25.3 6.7 33.9 5.9 34.9 6.2 74 17.1 109.4 24.3 12.7 2.5 56.1 10.9 66.6 14.4-3.3 5.3 1.1 18.4 2.8 25.5q11.7 49.6 24.5 99c2.6 10.6 10.1 37.8 11.3 47.6l-1.1.5c-17.9-5.3-39.8-14.3-58.1-20.4-50.5-16.8-103.3-37.4-153.9-53.3l-25.1-100.9c-3.4-13.9-6-29.2-10.3-42.6"/><path fill="#323131" d="m524.1 1468.9 10.8 1.8c38.5 33.8 74.5 71.8 113.8 105.2 15.4 13 31.7 30.6 48 41.9-7.4 10-56.5 75-58.3 80.8l1.2 3.5c-3.6 1.9-1.5-1.6-3.4.1-3.1 2.7-6.3 7.6-9.1 10.4-3.9-3.8-7.8-8.3-11.4-12.4-17.3-19.9-36-39-53-59.2-1.2-9.8-8.7-37-11.3-47.6q-12.8-49.4-24.5-99c-1.7-7.1-6.1-20.2-2.8-25.5"/><path fill="#737272" d="M620.9 1408.5c14.4 9.2 48.4 37.8 63.4 49.9l100.3 79.8c-6 7.2-41.4 51.6-43.5 57.3l-1.4 1.7c-6.2-6.8-36.6-27.3-45.4-33.9-36.4-27.2-73.4-54.3-109.7-81.7-11.4-8.6-40.4-28.1-48.9-36.8 13.4-6.1 77.6-30 84.4-35.4z"/><path fill="#232223" d="M685.8 1779.9c23.3 41.5 49.5 83.3 73.8 124.3 13 21.8 34 50.5 45 71.9q-13.2 36.1-26.9 71.9h-49.4l-16.9-99.6c-1.5-9.1-5.8-39.1-8.5-46.6.1-7.7-3.5-29.2-4.8-37.2-4.6-28.9-10.2-55.4-12.3-84.7"/><path fill="#585757" d="m933.4 1713.7 1.2-1.3c4.4 2.2 13.9 11.5 19 15.1 18.9 13.7 87.8 71.7 104.1 77.5-9.7 19.5-22.5 41.2-32.9 60.6a1808 1808 0 0 0-36 70.8c-18.6-74.3-34.3-148.4-55.4-222.7"/><path fill="#969494" d="M852.6 1760.5c8-2 33-14.1 38.9-12.7-18.7 70-34.3 140.4-51.6 210.7a602 602 0 0 0-30.2-46.8c4.6-13.1 24.3-71.5 23.9-82.6 7-22.3 12.8-46 19-68.6"/><path fill="#232223" d="M847 2048c4.5-5.6 37.1-29.9 45.4-36.2 30.6-23 63.6-50.8 94.9-72-12.8 34.4-27.4 74.8-41.4 108.2z"/><path fill="#414141" d="m869 1619 16 90.4c.8 4.7 5.1 28.3 4.9 31.9-6.9-6.4-19.4-23.4-25.5-31.3 1.4-7-11.6-34-15.2-43.6 3-16.3 7.7-35.8 19.8-47.4"/><path fill="#DDDBDA" d="m578.7 901.9 142.7-5.4c20.6-.7 39.2-.4 60.1-1.6l-7 18.6c-2.3 5.2-6 13.3-7.3 18.5 11.2 10.3 26.5 25.2 38 34.4 3.8 3 26.2 13.7 32.2 16.8 24 11.4 69.3 36.2 92.8 49.7q9 5.2 18.3 9.9c5.5 3.1 11.8 6.8 17.4 9.5 11.3 5.8 19.9 9.1 29 18.2l3.1 3.1q22.2 21.3 43.2 43.8a141 141 0 0 0 41 33.4c3.8 2.1 9.3 7.4 13.3 10 18.8 18.3 36.2 35.4 54.5 54.5q10.2 10.4 20.9 20.4c6.9 8 15.9 15.6 23.6 23.2 6 5.9 17.9 18.1 24.6 22.2 16.4 9.9 36.8 17.7 53.5 27.1l10.6 5.6q13 7 26.2 13.7 21.3 10.8 42.8 21.2c1.3.8 3.8 2.3 5.2 2.8q60.5 27.1 120.3 55.3l1.8.6c9.3 3.3 37.2 17.3 43.3 17.6 36.5 1.5 71.9 8.6 107.5 16.6 14.5 2.8 30.9 5.5 45.3 8.7l1.6-3.2c3.2 1 13 3.4 14.3 6.1 2.6 1.2 18.8 3.7 23 4.5 6-2 9.7-4.3 15.2-7.5 11.6 14.6 22 29.8 33.9 44.1-18.6 30.5-42.1 61.6-61.7 91.6-5.8 8.7-18.1 24.6-22.6 32.2 7 33.2 20.5 89 30.7 121.1 6.4-3 48.7 12.4 61.4 14.4l2.8.7.2 2 1.3.3c3.8-.2 12.2.5 16.4.7 9.3-6.9 49.8-29.3 61-33l6.4-4.5c-3 14.8-4.8 30-8 44.7l-1.6 8.9q-6.5 34-13.5 67.7c-1.2 5.9-6.2 19-4.3 23.9l-.1.7q-.3 6-.9 12.1-8.2 61-17.2 122.1c-2.1 14.4-4.5 34.3-7.2 48.1H1218l-114.3-303.2-.4-.5c-2-3.1-27.5-28.4-32.1-33.2-30.5-32.6-59.5-67.2-91.7-97.9l-2.5-2.5c-.7-14.1-11.2-30.7-13.1-44.7-34-36-75-76.2-110.7-111-2.1-2.7-7-5.1-10.1-6.5-27.8-18.1-61.4-35.4-89.7-53.7-11.5-7.4-27.4-15.4-37.7-23.8l-1-.2c-13.7-7.3-42.5-18.6-57.8-25-30.7-12.8-61.7-26.8-92.4-39.3l-1.4-1-3.3-1q-23.3-9.9-46.5-20.1c-2.8-2-11.9-5.6-15.1-6.8-14.4-6.4-27.5-12.5-42.2-18.4-12.7-5.3-23.9-10-36.9-14.7-5-2.6-10-4.5-15.3-6.6l-11.8-4.1-2.7-1.2-1.2.3-6.4 2.6c-4.7-1.4-55.3 12.3-63.6 14.4a1851 1851 0 0 1-51.9 11.7c-2.3-7.5-16.5-62.8-15.5-66.3 22.6-16 46.8-30 69.2-45.7 3.6-.8 33.2-19.8 38.5-23.1 5.5 0 7.9.1 13.4.9 3.6.6 9.9 1.4 13.1 2.4 12.5-2.6 28.8-7.4 41.8-10.7q36.6-9.2 73.6-17c19.2-4.4 43.6-7.5 61.8-12.9l.8.1c11.5-4.8 22.2-7.8 33.9-11.8l52-17.7c-18.4-33.2-33.4-70.3-49.5-104.7-6.6-14.3-11.6-29.7-18.7-43.7-2.2-4.3-2.8-4.1-2.8-9.3z"/><path fill="#9D9C9C" d="M963.9 1566c6.8 6.6 14 13.4 20.4 20.4l1.9 1.8c23.1 5.3 72.6 32 97 43.9q82.2 39.1 163.4 80.7c1.6 39.5 6.7 79.7 11.2 119 1 8.9 2 18.7 2.2 27.6-1.8 1.8-.9 1.1-2.8 2.1 5.9 2.2 4.7 6.4 8.6 7.6-.9-2.7-.9-2.7-2.5-5.1l1.3-.9c43.1 5.8 86.1 12.3 129.3 17.5 3.3 2.8 3.8 3.5 8.2 4 10.5 3.6 37.9 17.8 49.1 23.1l50.7 23.6c6.3 3 21.1 9.2 26 13 10.9 15.6 25.4 31.5 38 46.1q25 29.1 50.5 57.6H1218l-114.3-303.2-.4-.5c-2-3.1-27.5-28.4-32.1-33.2-30.5-32.6-59.5-67.2-91.7-97.9l-2.5-2.5c-.7-14.1-11.2-30.7-13.1-44.7"/><path fill="#111" d="M1103.7 1744.8c1-4.3 13.7-13.6 17.7-15.9 59.7 64.9 118.7 133.6 180.2 197.1 3.2 3.3 22.8 13.6 28 16.6l54.8 31.4c5.3 3 21.6 11.9 25.7 15.2 2.3 6.1 10.5 24.2 14.4 28.9a625 625 0 0 0 13.9 29.9H1218z"/><path fill="#232223" d="M1248.9 1888.9a2450 2450 0 0 1 59.7 90.9c13.8 21.9 30.1 45.9 42.9 68.2H1260c-1.9-52.7-10.1-108.6-11.1-159.1m-285-322.9c6.8 6.6 14 13.4 20.4 20.4l1.9 1.8c11 11 22.7 23.4 34.2 33.6 36.8 32.8 66.8 71.8 101 107.1-4 2.3-16.7 11.6-17.7 15.9l-.4-.5c-2-3.1-27.5-28.4-32.1-33.2-30.5-32.6-59.5-67.2-91.7-97.9l-2.5-2.5c-.7-14.1-11.2-30.7-13.1-44.7"/><path fill="#323131" d="M1410.1 1989.2c29.3 14.9 57.7 33.6 86.8 49 5.3 2.8 12.5 6.6 17.4 9.8h-75.9a625 625 0 0 1-13.9-29.9 169 169 0 0 1-14.4-28.9"/><path fill="#585757" d="M1424.5 2018.1c2.6.7 32.3 26 37.2 29.9h-23.3a625 625 0 0 1-13.9-29.9m428.6-293.8 6.4-4.5c-3 14.8-4.8 30-8 44.7l-1.6 8.9q-6.5 34-13.5 67.7c-1.2 5.9-6.2 19-4.3 23.9l-.1.7q-.3 6-.9 12.1-8.2 61-17.2 122.1c-2.1 14.4-4.5 34.3-7.2 48.1h-190.3q-25.5-28.5-50.5-57.6c-12.6-14.6-27.1-30.5-38-46.1-4.9-3.8-19.7-10-26-13l-50.7-23.6c-11.2-5.3-38.6-19.5-49.1-23.1-3-1.8-3.3-1.5-4.8-4.3 3.1-1.8 8.3-1.1 12.4-1.1 10.6-2 30.1-3.2 41.5-4.2l76.2-6.1q103.4-8.8 206.6-20.2l69.4-70.2c12.1-12.5 24.5-26.8 36.7-38.7 5.1-6.2 8.1-7.9 13-15.5"/><path fill="#737272" d="m1853.1 1724.3 6.4-4.5c-3 14.8-4.8 30-8 44.7l-1.6 8.9q-6.5 34-13.5 67.7c-1.2 5.9-6.2 19-4.3 23.9l-.1.7c-11.3 6.8-41.1 44.7-52.6 56.5l-.5 1.6c-28.5-1.5-57.6-5.9-85.9-7.4a1630 1630 0 0 1-226.8-27c-14.3-2.8-44.3-4.3-56.5-10.2 10.6-2 30.1-3.2 41.5-4.2l76.2-6.1q103.4-8.8 206.6-20.2l69.4-70.2c12.1-12.5 24.5-26.8 36.7-38.7 5.1-6.2 8.1-7.9 13-15.5"/><path fill="#82807F" d="m1853.1 1724.3 6.4-4.5c-3 14.8-4.8 30-8 44.7l-1.6 8.9q-6.5 34-13.5 67.7c-1.2 5.9-6.2 19-4.3 23.9l-.1.7c-11.3 6.8-41.1 44.7-52.6 56.5.6-6.7 8.2-28 10.8-35.2a1429 1429 0 0 1 26.4-69.8c9.1-22 18.5-44.5 26.7-66.9 1.6-4.4 2.3-10 3.8-14.9l-7 4.4c5.1-6.2 8.1-7.9 13-15.5"/><path fill="#A39E9D" d="M1779.4 1922.2c11.5-11.8 41.3-49.7 52.6-56.5q-.3 6-.9 12.1-8.2 61-17.2 122.1c-2.1 14.4-4.5 34.3-7.2 48.1H1745a606 606 0 0 0-68.6-38.3c33.6-25.3 70.7-58 102.5-85.9z"/><path fill="#737272" d="M1527.9 1944.3c13.8 3.9 53.4 23.1 67.9 29.7 26.1 11.9 55 23.5 80.6 35.7a606 606 0 0 1 68.6 38.3h-128.6q-25.5-28.5-50.5-57.6c-12.6-14.6-27.1-30.5-38-46.1"/><path fill="#969494" d="M1337.5 1638.2a704 704 0 0 1 32.5 16.3c54.3 28.7 109 56.8 162.5 86.9 5.8 3.3 16.8 9.7 22.9 11.5 41.6 25.1 90.7 46.9 133.4 70.6 13.7 7.6 32.6 16.8 45.2 25.2a8441 8441 0 0 1-206.6 20.2l-76.2 6.1c-11.4 1-30.9 2.2-41.5 4.2-4.1 0-9.3-.7-12.4 1.1 1.5 2.8 1.8 2.5 4.8 4.3-4.4-.5-4.9-1.2-8.2-4-43.2-5.2-86.2-11.7-129.3-17.5l-1.3.9c1.6 2.4 1.6 2.4 2.5 5.1-3.9-1.2-2.7-5.4-8.6-7.6 1.9-1 1-.3 2.8-2.1-.2-8.9-1.2-18.7-2.2-27.6-4.5-39.3-9.6-79.5-11.2-119l150.9 67.5c32.5 14.5 66.1 28.7 97.6 44.9q-24.1-31.6-50.3-61.4c-36-41.5-70.9-84.4-107.3-125.6"/><path fill="#B1AEAD" d="m989.4 1201.5 64.3 25.2c52.2 21.1 104.2 44.3 156.4 65.6 11.2 4.6 22.3 10.4 33.5 14.9 33.9 48.5 69.9 95.8 102.6 145.2 2.5 3.6 9.6 15.6 13 17.2l-1.3.6a2749 2749 0 0 0-84.4 21.8c-12.9 3.6-31.4 8.4-43.4 13-.7 14.5 2.2 21.9 2.6 35-15.5-13.4-31.6-32.1-47.4-44.5a38 38 0 0 1-15.8-4.6l-5.3-13.6q-6.5-7.2-12.8-14.5c-11.5-11.6-54.8-48.8-59.1-57.5-9.6-22-23.3-47.9-34.3-69.4l-43.6-85.6c-4.8-9.3-22.4-39.9-25-48.8"/><path fill="#A39E9D" d="m989.4 1201.5 64.3 25.2c3.1 10.8 25.8 45.4 32.7 56.8q57.6 95.3 120.9 187.1c5 7.3 18.7 29.8 22.8 34.4-.7 14.5 2.2 21.9 2.6 35-15.5-13.4-31.6-32.1-47.4-44.5a38 38 0 0 1-15.8-4.6l-5.3-13.6q-6.5-7.2-12.8-14.5c-11.5-11.6-54.8-48.8-59.1-57.5-9.6-22-23.3-47.9-34.3-69.4l-43.6-85.6c-4.8-9.3-22.4-39.9-25-48.8"/><path fill="#B1AEAD" d="M1164.2 1477.3a102 102 0 0 1 21.1 18.2 38 38 0 0 1-15.8-4.6z"/><path fill="#82807F" d="M1702.8 1506.7c19.4-2.7 41.5-8 60.8-12.4-18.6 30.5-42.1 61.6-61.7 91.6-5.8 8.7-18.1 24.6-22.6 32.2 7 33.2 20.5 89 30.7 121.1l-2.5 2.3c-54.3-13.3-108-27.9-162.5-40.8l-3.8-1 1.3-1.1c-2.3-4.3-8.6-11.2-11.8-15.4-10.5-14.2-26.4-31-35.7-45.4-15.5-17.2-38.3-47.8-53.1-66.5 18.7-7.7 50.5-17.2 70.8-24q69.5-22.8 138.3-47.1c3.5-1.2 7.4-2 8.7-4.8 14.7 2 27.7 8.2 41.5 11.6z"/><path fill="#B1AEAD" d="M1659.7 1495.4c14.7 2 27.7 8.2 41.5 11.6-25 17-50.2 31.8-75.8 48a7039 7039 0 0 0-86.2 55.7c-14.7 9.3-27.6 16.8-42.3 26.8l-1.9.3c-15.5-17.2-38.3-47.8-53.1-66.5 18.7-7.7 50.5-17.2 70.8-24q69.5-22.8 138.3-47.1c3.5-1.2 7.4-2 8.7-4.8"/><path fill="#969494" d="M1496.9 1637.5c15.8 1.4 62.5-4.4 79.9-6.3 20.9-2.3 51.4-5 71.6-8.7a438 438 0 0 1-59.1 48c-8.9 6-37.8 24.3-44.3 30.2l-3.8-1 1.3-1.1c-2.3-4.3-8.6-11.2-11.8-15.4-10.5-14.2-26.4-31-35.7-45.4z"/><path fill="#737272" d="M1230.1 1505c12-4.6 30.5-9.4 43.4-13q42-11.6 84.4-21.8c20.3 23.3 39.4 48.1 59.2 71.8 4.4 5.2 20.8 25.8 24.8 29.3 14.8 18.7 37.6 49.3 53.1 66.5 9.3 14.4 25.2 31.2 35.7 45.4 3.2 4.2 9.5 11.1 11.8 15.4l-1.3 1.1c-27.5-8.5-65.2-25.3-93.3-36.3a5165 5165 0 0 1-100.7-40.7c-6.6-2.8-41.4-16.9-45.7-20.5a1162 1162 0 0 1-68.8-62.2c-.4-13.1-3.3-20.5-2.6-35"/><path fill="#82807F" d="M494.2 1256.7c8.1 1.8 30.1 1.7 39.2 1.9q36.4.8 72.9 2.1c29 1.2 58.1 3.5 87.3 4.8 69.9 2.9 139.4 5.1 209.1 9.8q-66 32.2-131.3 65.9c-7.9 3.9-54.4 25-56.7 29.6-13.7-7.3-42.5-18.6-57.8-25-30.7-12.8-61.7-26.8-92.4-39.3l-1.4-1-3.3-1q-23.3-9.9-46.5-20.1c-2.8-2-11.9-5.6-15.1-6.8-14.4-6.4-27.5-12.5-42.2-18.4 12.3-.9 26.4-.5 38.2-2.5"/><path fill="#969494" d="M1359.2 1469.6a3830 3830 0 0 1 74-26.6c13-4.4 29.5-9.1 41.8-13.7a5225 5225 0 0 0 108.7 39.7c6 2.2 35.8 13 40.4 13.8 9.4 4.3 25.4 9.3 35.6 12.6-1.3 2.8-5.2 3.6-8.7 4.8q-68.9 24.3-138.3 47.1c-20.3 6.8-52.1 16.3-70.8 24-4-3.5-20.4-24.1-24.8-29.3-19.8-23.7-38.9-48.5-59.2-71.8z"/><path fill="#CCC9C9" d="M829 1000.9c6.5 9.1 18.6 22.8 26.1 32a2998 2998 0 0 1 44.6 55.4l62.3 79c4.4 5.7 23.2 30.6 27.4 34.2 2.6 8.9 20.2 39.5 25 48.8l43.6 85.6c11 21.5 24.7 47.4 34.3 69.4q-2.9-.7-5.1-2.5c-39-36.1-79.9-70.2-118.5-106.9-19.3-18.5-40.1-35.6-59.8-53.6-5.9-21.2-14-42.8-20.7-63.8-18.8-59.2-41.2-118.3-59.2-177.6"/><path fill="#B1AEAD" d="M358.4 1126.5c5.5 0 7.9.1 13.4.9l-2.5 1.2 1 1.5c62.4 19.6 124.8 38.6 186.9 59.2-15.1 3.8-162.1 41.7-164.7 43.6l-.5.9-2.7-1.2-1.2.3-6.4 2.6c-4.7-1.4-55.3 12.3-63.6 14.4a1851 1851 0 0 1-51.9 11.7c-2.3-7.5-16.5-62.8-15.5-66.3 22.6-16 46.8-30 69.2-45.7 3.6-.8 33.2-19.8 38.5-23.1"/><path fill="#585757" d="M250.7 1195.3q42.7 10.9 85.5 22.4c13.9 3.6 41.7 12.9 53.1 14.9l-1.2.3-6.4 2.6c-4.7-1.4-55.3 12.3-63.6 14.4a1851 1851 0 0 1-51.9 11.7c-2.3-7.5-16.5-62.8-15.5-66.3"/><path fill="#969494" d="M358.4 1126.5c-.8 18-18 70.8-22.2 91.2q-42.8-11.5-85.5-22.4c22.6-16 46.8-30 69.2-45.7 3.6-.8 33.2-19.8 38.5-23.1"/><path fill="#B1AEAD" d="M715.7 1371c14.9 1.9 46.1 10.5 62.6 14q55.7 11.9 110.9 25.4c12 2.9 36.9 8.2 48.1 11.9 3 7.3 28.6 46.5 34.8 56.2 24 37.8 45.4 76.7 68.6 114.7-13.7-.4-29.3-2.4-42.9-4.2-5.2-.6-8.5-3.9-13.5-2.6-6.4-7-13.6-13.8-20.4-20.4-34-36-75-76.2-110.7-111-2.1-2.7-7-5.1-10.1-6.5-27.8-18.1-61.4-35.4-89.7-53.7-11.5-7.4-27.4-15.4-37.7-23.8"/><path fill="#969494" d="M937.3 1422.3c10.5 4.5 26.8 10.9 36.3 16 9 4.8 21.8 13.7 30.8 19.4l56.9 35.9c39.8 24.7 80.2 49.4 121.5 71.5 28.2 15 56 30.4 85.4 43-74.9-.6-153.1-12.2-227.5-14.9-23.2-38-44.6-76.9-68.6-114.7-6.2-9.7-31.8-48.9-34.8-56.2M577.8 902.1l.9-.2c5.7 3.7 35 15.4 43.9 19.4 65.4 29.6 132.9 55.1 199.8 81.2q-87.2 27.3-173.6 57.3c-18.4-33.2-33.4-70.3-49.5-104.7-6.6-14.3-11.6-29.7-18.7-43.7-2.2-4.3-2.8-4.1-2.8-9.3"/><path fill="#B1AEAD" d="M1792.1 1757.3c9.3-6.9 49.8-29.3 61-33-4.9 7.6-7.9 9.3-13 15.5-12.2 11.9-24.6 26.2-36.7 38.7l-69.4 70.2c-12.6-8.4-31.5-17.6-45.2-25.2-42.7-23.7-91.8-45.5-133.4-70.6 24.3-1.1 49.5.1 73.8.9q47.4 2 95 3c10 .2 43.4 1.6 51.5-.2 3.8-.2 12.2.5 16.4.7"/><path fill="#CCC9C9" d="m562.1 1089.2.8.1c6.7 6.2 57.7 28.3 71.5 36.9a351 351 0 0 1-32.3 3.7c-38.8 3.1-77.4 9.3-116.1 13.3l-1 1.5c-4.1-1.3-17.9-3.2-22.6-3.9-24.4-3.8-53.7-5.4-77.5-11 12.5-2.6 28.8-7.4 41.8-10.7q36.6-9.2 73.6-17c19.2-4.4 43.6-7.5 61.8-12.9"/><path fill="#B1AEAD" d="M634.4 1126.2c5.8-.2 89.7 54.3 105.8 61.2 8 3.5 18.4 4.4 27 5.9 24.3 4.5 50.2 7.4 74 13.8a7302 7302 0 0 1-279.2-48.6c-25.1-4.7-52.5-8.8-77-13.8l1-1.5c38.7-4 77.3-10.2 116.1-13.3 10.4-.8 22-1.9 32.3-3.7"/><path fill="#969494" d="M403.8 1237.9c24 0 66.3 13.6 90.4 18.8-11.8 2-25.9 1.6-38.2 2.5-12.7-5.3-23.9-10-36.9-14.7-5-2.6-10-4.5-15.3-6.6"/><path fill="#CCC9C9" d="M1624.1 1482.8c6.1-.8 28.6 10.4 36 11 6.3.5 9.5-1.6 15-2.3a98 98 0 0 1 27.6.1c2.7 3.8-2.1 11 .1 15.1l-1.6.3c-13.8-3.4-26.8-9.6-41.5-11.6-10.2-3.3-26.2-8.3-35.6-12.6"/><path fill="#414141" d="M742.6 909.1c10.6.7 21.3 2.7 31.9 4.4-2.3 5.2-6 13.3-7.3 18.5a537 537 0 0 1-24.6-22.9"/><path fill="#CCC9C9" d="M1151.4 1462.8q6.3 7.3 12.8 14.5l5.3 13.6c-6.1-2.7-23.7-17-23.3-24.8 2.1-3.1.7-1.8 5.2-3.3"/><path fill="#969494" d="M1710 1739.2c6.4-3 48.7 12.4 61.4 14.4-6.7 1.3-53.6-10.1-63.9-12.1z"/><path fill="#82807F" d="M1677.2 1447.1c3.2 1 13 3.4 14.3 6.1l-15.9-2.9z"/><path fill="#B1AEAD" d="m975.5 400.1 2.2-2.9c2.6 2.3 9.6 7.4 12.5 8.8 17.3 8.8 64.8 45.3 81.6 48.1 5.5 5.5 11.4 11.7 17.1 16.9 12.5-.7 24.6-.2 37.1 0 19.8.4 38.4-.2 58.7.4 10.1 2.4 60.6 0 75.5.1 3.5 5.4 12.7 18.1 18.4 20.6 12.5 15 44.3 52.6 54.2 67.9 13.4 20.1 28.2 39.6 42 59.4 5.9 6.1 24.1 29.9 30.4 37.7l.2 4.1.8 1c-3.5 11.5-50.4 58.4-59.2 73.7-2.2 4-21.4 28.8-25.2 32.9 16.4 18.1 33.1 38.6 49.4 56.3 22.5 24.2 52.8 46.8 78.7 67.2 3 2.1 10.6 5.3 14.2 7.2 2.2 1.8 2.7 1.4 5.7 1.6 5.9 1.3 8.7 1 14.7.8l3.4-.3-10.6 8.7-6.6 5c-6.4 3-14.3 6.9-20.7 9.3l-3.3.9-.9.8c2.8 3.9 6.5 8 7.1 12.5 6.1.3 18.7 9.5 28.3 12.6l-.2 12.7-.2 17.5c-.5 9.1 9.4 23.7 17.7 28 7.4-4.1 16.7-9.6 24.1-13.2-1.4 15.1-5.9 33-7.8 49a2734 2734 0 0 0-35.9 46.5v8.2c-4 2.2-7.4 3.9-11.6 5.8l-.9 1.1c-9.2-1-21.4 4.2-24.8 1.6l-.4.5-12.1 1.3c-3.6.7-8.7 1.5-12 2.7 1.4 2.8 2.6 2.8 6.1 4.5l.4 3.3c-6.4 1.4-10.4 1.7-16.8 2.2l-4-.6c-2.9 2.9-7.1 7.2-10 9.8-3.9 3.2-9.6 8-13.6 10.7l-2.7 3c-4.1.8-14.7 4.5-18 6.8 1.3 5.2 7.7 3.4 11.4 15-9.1-4-15.5-9-25.3-11-.4 5.7.2 27-.4 28.7-9.9-1.1-22.5-1.2-33.1-2 3.7 7 13.2 23.7 14.2 30.7l.7.1-1.5 3.5c6.4-2.5 9.2-.4 16 2.2-5.1 25.2-10.6 51.1-16.9 76.1-2.6 10.2-12.4 20.1-14.2 31.4q-13.2-6.7-26.2-13.7l-10.6-5.6c-16.7-9.4-37.1-17.2-53.5-27.1-6.7-4.1-18.6-16.3-24.6-22.2-7.7-7.6-16.7-15.2-23.6-23.2a806 806 0 0 1-20.9-20.4 2154 2154 0 0 0-54.5-54.5c-4-2.6-9.5-7.9-13.3-10a141 141 0 0 1-41-33.4q-21-22.5-43.2-43.8l-3.1-3.1c-9.1-9.1-17.7-12.4-29-18.2l.6-1.8c6-9 11.9-19.1 17.8-27.7 4.2-7.3 6.1-13.8 9.4-21.6 1.2-2.6 1.1-1.9 4.2-3 13.9-1.2 24.2-2.6 37.9-4.5l-2.9-.7c.3-3.7 3.9-6.8 6.5-9.4 4.3-1.2 7.5-4.2 7.4-8.8l-3.3-2.4a125 125 0 0 1-34.8 6.7c4.7-4.9 9.5-9.1 14.6-13.7 3.3-3.8 26.1-22 31.4-26.3 6.9-5.6 21.3-16.7 26.1-23l.1-1.8c-10.3-2-31.4-11.4-36.2-11.4l-1.1-1.4c-8.6-1.9-13.6-5.4-20.8-10.2l-9.5 6.7c2.5-19.1 5.6-24.7 5.1-45.4a561 561 0 0 0-33.6-33.6h-.8l-2.2-12.2q-13.6-.7-27-.9l13.3-5.9 4.1-4.2 3.7-1.9 2.5-1.4c8-5.6 24-15.2 31.3-22.2l.8-3.5c.6 2.3 0 1.3 1.5 2.9 4-1.7 13.8-9.2 18.3-12.1l49.5-32.5c-3.3-4.1-74.5-27.1-82.3-27.8-16.4-5.7-38.4-8.9-56.8-15.3a389 389 0 0 1-22.8-34.1c-7.6-12.3-36.7-49.4-40.3-60.1a1543 1543 0 0 0-34.5-45.3l-2.1-.9c13-10 45.5-25.2 56.3-34.6 3.6 7.9 41 23.3 51 30.1l6.7.2c2.6-13.3 5.6-36.8 7.3-49.9 1.5-10.9 15.5-82.6 13.2-87.3"/><path fill="#252525" d="m975.5 400.1 2.2-2.9c2.6 2.3 9.6 7.4 12.5 8.8 17.3 8.8 64.8 45.3 81.6 48.1 5.5 5.5 11.4 11.7 17.1 16.9 12.5-.7 24.6-.2 37.1 0 19.8.4 38.4-.2 58.7.4 10.1 2.4 60.6 0 75.5.1 3.5 5.4 12.7 18.1 18.4 20.6 12.5 15 44.3 52.6 54.2 67.9 13.4 20.1 28.2 39.6 42 59.4 5.9 6.1 24.1 29.9 30.4 37.7l.2 4.1c-16.9-10.7-35.2-20.9-52.5-31.2-10.9-6.5-23-14.3-33.9-20.2l-1.2.6-.7 2.1-2.8.7c-27.6 6.7-61.3 14-88.1 22 3.5 5.4 25.6 41.6 26.9 46-1.8 1.7-1.1 1.3-3.2 2.1-2.7-1.6-4.6-1.4-7.7-1.7-1.1 1.6-1.2 1.6-1.7 3.5-11 3.9-24.9 4.7-37.1 7.8-41.1 10.3-82.4 22.8-123.6 32.2-3.3-4.1-74.5-27.1-82.3-27.8-16.4-5.7-38.4-8.9-56.8-15.3a389 389 0 0 1-22.8-34.1c-7.6-12.3-36.7-49.4-40.3-60.1a1543 1543 0 0 0-34.5-45.3l-2.1-.9c13-10 45.5-25.2 56.3-34.6 3.6 7.9 41 23.3 51 30.1l6.7.2c2.6-13.3 5.6-36.8 7.3-49.9 1.5-10.9 15.5-82.6 13.2-87.3"/><path fill="#232223" d="m975.5 400.1 2.2-2.9c2.6 2.3 9.6 7.4 12.5 8.8 17.3 8.8 64.8 45.3 81.6 48.1 5.5 5.5 11.4 11.7 17.1 16.9 12.5-.7 24.6-.2 37.1 0 19.8.4 38.4-.2 58.7.4 10.1 2.4 60.6 0 75.5.1 3.5 5.4 12.7 18.1 18.4 20.6 12.5 15 44.3 52.6 54.2 67.9 13.4 20.1 28.2 39.6 42 59.4 5.9 6.1 24.1 29.9 30.4 37.7l.2 4.1c-16.9-10.7-35.2-20.9-52.5-31.2-10.9-6.5-23-14.3-33.9-20.2l-1.2.6-.7 2.1-2.8.7c-7.9-2.2-20.9-3.9-29.3-5.2-18.2-13.8-64.4-19.3-87.5-25.2-5.2-1.3-44-9.5-46.9-9.1 10.4 3.1 23.2 5 32.7 8a746 746 0 0 1-84.1 14.5c-5.3-2.8-21.5-8.6-28-11.3a3769 3769 0 0 0-74.8-30.3c-12.7-5.2-29.5-14.5-41.4-17.3 2.6-13.3 5.6-36.8 7.3-49.9 1.5-10.9 15.5-82.6 13.2-87.3"/><path fill="#3C3B3C" d="M1043.9 469c12.1 1.4 32.3 1.6 45 2 12.5-.7 24.6-.2 37.1 0 19.8.4 38.4-.2 58.7.4 10.1 2.4 60.6 0 75.5.1 3.5 5.4 12.7 18.1 18.4 20.6 12.5 15 44.3 52.6 54.2 67.9 13.4 20.1 28.2 39.6 42 59.4 5.9 6.1 24.1 29.9 30.4 37.7l.2 4.1c-16.9-10.7-35.2-20.9-52.5-31.2-10.9-6.5-23-14.3-33.9-20.2l-1.2.6c-8.5-7.5-31.6-14.5-43.1-18.9l-80.7-30.8c-7.5-2.9-32.2-10.5-37.5-14-38-25.1-76.3-50.1-112.6-77.7"/><path fill="#323131" d="M1374.8 619.4c-18.7-2.9-51.8-38.6-69.3-48.7a207 207 0 0 1-28.9-21.9c4.2-4 49 13.7 56.2 11.2 13.4 20.1 28.2 39.6 42 59.4M897.3 507c3.6 7.9 41 23.3 51 30.1l6.7.2c11.9 2.8 28.7 12.1 41.4 17.3q37.6 14.8 74.8 30.3c6.5 2.7 22.7 8.5 28 11.3q-44.5 10.2-89.1 20.8c-16.1 4-32.6 9-48.9 11.9-29.1-15-54.6-27-83.6-41.1a1543 1543 0 0 0-34.5-45.3l-2.1-.9c13-10 45.5-25.2 56.3-34.6"/><path fill="#232223" d="M897.3 507c3.6 7.9 41 23.3 51 30.1-16.9 2.4-34.4 2.2-50.9 3.3-10.1.6-48.6-1.8-54.3 2.1l-2.1-.9c13-10 45.5-25.2 56.3-34.6"/><path fill="#414141" d="M1162.7 623.3c5.7.9 18.5 4.3 25 5.5 7.7 1.4 33 4.4 38.5 6.4 3.5 5.4 25.6 41.6 26.9 46-1.8 1.7-1.1 1.3-3.2 2.1-2.7-1.6-4.6-1.4-7.7-1.7a484 484 0 0 1-38.1-5c-47.5-5.7-95.1-16-143.4-20.9q6.9-2.7 14.1-4.8c29.3-9.1 59.2-16.4 87.9-27.6"/><path fill="#232223" d="M997.5 697.3c57.3-.5 117-12.2 174.5-14.8 10.7-.5 22-6.2 32.1-5.9a484 484 0 0 0 38.1 5c-1.1 1.6-1.2 1.6-1.7 3.5-11 3.9-24.9 4.7-37.1 7.8-41.1 10.3-82.4 22.8-123.6 32.2-3.3-4.1-74.5-27.1-82.3-27.8"/><path fill="#323131" d="M1162.7 623.3c7.6-.8 22.8-4.4 31.3-6 33.3-6.5 56.9-11.4 91-9.3 8.4 1.3 21.4 3 29.3 5.2-27.6 6.7-61.3 14-88.1 22-5.5-2-30.8-5-38.5-6.4-6.5-1.2-19.3-4.6-25-5.5"/><path fill="#CCC9C9" d="m1317.8 610.4 1.2-.6c10.9 5.9 23 13.7 33.9 20.2 17.3 10.3 35.6 20.5 52.5 31.2l.8 1c-3.5 11.5-50.4 58.4-59.2 73.7-2.2 4-21.4 28.8-25.2 32.9l-1.9.9c-4.5 11.5-10.3 22.5-14.6 33.8-6.3-2.6-17.2-5.9-24-8.2l-13.3-4.9c-11.1 6.2-26.9 12.3-36.2 17.8-5.2 1.6-13.8 4-18.2 6.6l-.1 1.3 2.7 1.5c2.8 2.2 6 4.8 8.9 6.7 5.5 21.4 28.3 58.7 39.2 78.2l-53 48.4c-6.3-8.1-25-26-32.8-34l-77.3-78.3c-.7 9.7-17 63.4-20.3 75.7-10.3-2-31.4-11.4-36.2-11.4l-1.1-1.4c-8.6-1.9-13.6-5.4-20.8-10.2l-9.5 6.7c2.5-19.1 5.6-24.7 5.1-45.4a561 561 0 0 0-33.6-33.6h-.8l-2.2-12.2q-13.6-.7-27-.9l13.3-5.9 4.1-4.2 3.7-1.9 2.5-1.4c8-5.6 24-15.2 31.3-22.2l.8-3.5c.6 2.3 0 1.3 1.5 2.9 4-1.7 13.8-9.2 18.3-12.1l49.5-32.5c41.2-9.4 82.5-21.9 123.6-32.2 12.2-3.1 26.1-3.9 37.1-7.8.5-1.9.6-1.9 1.7-3.5 3.1.3 5 .1 7.7 1.7 2.1-.8 1.4-.4 3.2-2.1a679 679 0 0 0-26.9-46c26.8-8 60.5-15.3 88.1-22l2.8-.7z"/><path fill="#111" d="M1242.2 681.6c3.1.3 5 .1 7.7 1.7-25.9 16.3-53.6 32.5-78.9 48.9a809 809 0 0 1 31-6.2 2483 2483 0 0 0-59.5 47.7c-4.4 3.8-8.3 6.5-11 11.7a715 715 0 0 1-30.3 53.2c-.7 9.7-17 63.4-20.3 75.7-10.3-2-31.4-11.4-36.2-11.4l-1.1-1.4c-8.6-1.9-13.6-5.4-20.8-10.2l-9.5 6.7c2.5-19.1 5.6-24.7 5.1-45.4a561 561 0 0 0-33.6-33.6h-.8l-2.2-12.2q-13.6-.7-27-.9l13.3-5.9 4.1-4.2 3.7-1.9 2.5-1.4c8-5.6 24-15.2 31.3-22.2l.8-3.5c.6 2.3 0 1.3 1.5 2.9 4-1.7 13.8-9.2 18.3-12.1l49.5-32.5c41.2-9.4 82.5-21.9 123.6-32.2 12.2-3.1 26.1-3.9 37.1-7.8.5-1.9.6-1.9 1.7-3.5"/><path fill="#323131" d="M1242.2 681.6c3.1.3 5 .1 7.7 1.7-25.9 16.3-53.6 32.5-78.9 48.9a809 809 0 0 1 31-6.2 2483 2483 0 0 0-59.5 47.7c-.1-9 .2-14.4 3-23l13.6-10.8c-41.3 11.8-82.9 26.9-124.1 39.3-19.2 5.8-47.7 18-66.9 20.8l4.1-4.2 3.7-1.9 2.5-1.4c8-5.6 24-15.2 31.3-22.2l.8-3.5c.6 2.3 0 1.3 1.5 2.9 4-1.7 13.8-9.2 18.3-12.1l49.5-32.5c41.2-9.4 82.5-21.9 123.6-32.2 12.2-3.1 26.1-3.9 37.1-7.8.5-1.9.6-1.9 1.7-3.5"/><path fill="#252525" d="M1036.9 832.6a448 448 0 0 0 57.2-23.8c12.7-6.6 22.2-18.7 37.4-23.4a715 715 0 0 1-30.3 53.2c-.7 9.7-17 63.4-20.3 75.7-10.3-2-31.4-11.4-36.2-11.4l-1.1-1.4c-8.6-1.9-13.6-5.4-20.8-10.2l-9.5 6.7c2.5-19.1 5.6-24.7 5.1-45.4l-.4-8c2.5-4.7 13.4-9.1 18.9-12"/><path fill="#232223" d="M1036.9 832.6c3.4-2.6 10.1-5.3 12.3-7.3 26-24.3 54.8-44.8 83.3-65.8 4.3-3.1 8.3-6.2 13-8.8-2.8 8.6-3.1 14-3 23-4.4 3.8-8.3 6.5-11 11.7-15.2 4.7-24.7 16.8-37.4 23.4-16.5 8.4-39.5 18-57.2 23.8"/><path fill="#5E5858" d="M990.8 807.1c9.6-.2 17.8.8 27.1.9.3 11.3-.5 26.5.1 36.6l.4 8a561 561 0 0 0-33.6-33.6h-.8l-2.2-12.2z"/><path fill="#A39E9D" d="m981.8 806.8 9 .3c6.1 1 9.4 1.2 15.5 1.5a41 41 0 0 0-21.5 10.4h-.8z"/><path fill="#323131" d="M1233.1 778.5c26.6-2.7 60.5-7.3 86.8-8.8-4.5 11.5-10.3 22.5-14.6 33.8-6.3-2.6-17.2-5.9-24-8.2l-13.3-4.9q-17.4-6.3-34.9-11.9"/><path fill="#A39E9D" d="M1133.2 1064.3c.2 4.1 13.8 30.1 16.4 37.3 5.7 16 14.2 34.4 19.5 50.5 6.1-.4 20.5-1.4 26-.5 15.5.6 34.7-3.5 49.2-3.2 32.8.8 67.6 4.7 100.3 8.4-.4 5.7.2 27-.4 28.7-9.9-1.1-22.5-1.2-33.1-2 3.7 7 13.2 23.7 14.2 30.7l.7.1-1.5 3.5c6.4-2.5 9.2-.4 16 2.2-5.1 25.2-10.6 51.1-16.9 76.1-2.6 10.2-12.4 20.1-14.2 31.4q-13.2-6.7-26.2-13.7l-10.6-5.6c-16.7-9.4-37.1-17.2-53.5-27.1-6.7-4.1-18.6-16.3-24.6-22.2-7.7-7.6-16.7-15.2-23.6-23.2a806 806 0 0 1-20.9-20.4 2154 2154 0 0 0-54.5-54.5v-1c-1.9-3.6-1.3-13.4-.7-17.7 12.2-24 24.2-49.7 35.9-74.1z"/><path fill="#232223" d="M1324.5 1217.8c6.4-2.5 9.2-.4 16 2.2-5.1 25.2-10.6 51.1-16.9 76.1-2.6 10.2-12.4 20.1-14.2 31.4q-13.2-6.7-26.2-13.7l-10.6-5.6c-16.7-9.4-37.1-17.2-53.5-27.1-6.7-4.1-18.6-16.3-24.6-22.2a112 112 0 0 0 11.7-18.6c9.6 6.8 30.6 23.7 38.6 32 11.5-5.9 23.6-11.6 34.9-18 4.4-2.5 9.2-8.7 12.6-9.3l.5.8 1.2 1.5c3.6-.1 11.8-4.5 15.7-6.3 6.5-7.3 9.1-15.1 14.8-23.2"/><path fill="#414141" d="m1292.8 1245.8 1.2 1.5c3.6-.1 11.8-4.5 15.7-6.3-4.5 9.1-14 24-21.1 31.2-.3-9.2-1.5-19 4.2-26.4"/><path fill="#111" d="M1272.6 1308.2c7.7-13.1 11.9-18.6 16.7-33.1-.1 11.4-.2 28.4-6.1 38.7zm-64.7-116.1 8.5-4.3c-2.3 9.7-11 45-10.2 52.5a112 112 0 0 1-11.7 18.6c-7.7-7.6-16.7-15.2-23.6-23.2a806 806 0 0 1-20.9-20.4c3.4-3.5 14.4-6.9 19.2-8.5q19.5-7 38.7-14.7"/><path fill="#232223" d="M1169.2 1206.8q19.5-7 38.7-14.7c-3.7 12.8-30 28.1-38.9 38.4l1.9 5.2a806 806 0 0 1-20.9-20.4c3.4-3.5 14.4-6.9 19.2-8.5"/><path fill="#232223" d="m1094.8 1142.1 4.8 2.8c3 3 7 7.1 10.3 9.5 4.6 3.3 6.9 5.1 12.5 6.3 4.4 8.5 38 38.6 46.8 46.1-4.8 1.6-15.8 5-19.2 8.5a2154 2154 0 0 0-54.5-54.5v-1c-1.9-3.6-1.3-13.4-.7-17.7"/><path fill="#585757" d="M1263 1205.3c6.4-2.8 45.2-21.7 48.1-21.8 3.7 7 13.2 23.7 14.2 30.7a724 724 0 0 0-62.3-8.9m-163.4-60.4c9.6.3 17.7-.9 24.4 5.6.3 2.6.2 4 .2 6.6l.3 1.7-2.1 1.9c-5.6-1.2-7.9-3-12.5-6.3-3.3-2.4-7.3-6.5-10.3-9.5"/><path fill="#82807F" d="M1109.9 1154.4c6-2.7 9.8-2 14.3 2.7l.3 1.7-2.1 1.9c-5.6-1.2-7.9-3-12.5-6.3"/><path fill="#111" d="M1321.8 768.8c16.4 18.1 33.1 38.6 49.4 56.3 22.5 24.2 52.8 46.8 78.7 67.2 3 2.1 10.6 5.3 14.2 7.2 2.2 1.8 2.7 1.4 5.7 1.6 5.9 1.3 8.7 1 14.7.8l3.4-.3-10.6 8.7-6.6 5c-6.4 3-14.3 6.9-20.7 9.3l-3.3.9-.9.8c-9.3.7-38.3.9-43.9 1.7l-1.1 1.2-8.2 11.1c-3.4 5-10.8 20.3-12.6 26.3l-3.7 1.7c-17.5-7.7-41.8-21.7-53-37.3-4.5-1.6-19.6-3.1-21.4-4.7-3.5-3-15.4-36.3-16.5-40.1-6.8-3.9-22.9-30.4-28.3-33.3s-10.5-2-15.6-13.5c-3.7-8.2-9.2-10.5-16.4-15.1-2.9-1.9-6.1-4.5-8.9-6.7l-2.7-1.5.1-1.3c4.4-2.6 13-5 18.2-6.6 9.3-5.5 25.1-11.6 36.2-17.8l13.3 4.9c6.8 2.3 17.7 5.6 24 8.2 4.3-11.3 10.1-22.3 14.6-33.8z"/><path fill="#82807F" d="M1346.8 911.8c4.4.9 9.2 1.8 13.5 2.9 4.9 3.3 8.5 7.2 14.3 5 1.9 2.3 4.3 5 6 7.4-.9 1.9-.4 1.1-1.2 2.5-1.4.4-3.4 1-4.7 1.6 7.9.7 18.2-1 26.1-2l-8.2 11.1c-3.4 5-10.8 20.3-12.6 26.3l-3.7 1.7c-17.5-7.7-41.8-21.7-53-37.3l.6-.2.3-2.4c6.8-4.3 13.2-12 20.2-14.2z"/><path fill="#585757" d="M1346.8 911.8c4.4.9 9.2 1.8 13.5 2.9 4.9 3.3 8.5 7.2 14.3 5 1.9 2.3 4.3 5 6 7.4-.9 1.9-.4 1.1-1.2 2.5-1.4.4-3.4 1-4.7 1.6q-25 1.5-49.9-.4h-.9l.3-2.4c6.8-4.3 13.2-12 20.2-14.2z"/><path fill="#5E5858" d="M1344.4 914.2c1.8 12.6-13.9 11.2-19.6 16.6h-.9l.3-2.4c6.8-4.3 13.2-12 20.2-14.2"/><path fill="#B1AEAD" d="m1268 790.4 13.3 4.9c6.8 2.3 17.7 5.6 24 8.2l5.5 6.3c-11.3 12.7-40.8 18.5-57.3 20.7-11.8-3.6-26.4-10.1-37.3-12.9l-2.7-1.5.1-1.3c4.4-2.6 13-5 18.2-6.6 9.3-5.5 25.1-11.6 36.2-17.8"/><path fill="#DDDBDA" d="m1268 790.4 13.3 4.9c-4.7 5.1-38 12.5-45.3 12.8l-4.2.1c9.3-5.5 25.1-11.6 36.2-17.8"/><path fill="#323131" d="M1378 893.5c15.7 9.2 18.8 5.5 35.4 10.7 1.4.4 9.9 6.2 11.8 7.5 2.9 2.1 18.3 12.4 21.5 13.8l-.9.8c-9.3.7-38.3.9-43.9 1.7l-1.1 1.2c-7.9 1-18.2 2.7-26.1 2 1.3-.6 3.3-1.2 4.7-1.6.8-1.4.3-.6 1.2-2.5 2.4-4-1.7-28-2.6-33.6"/><path fill="#5E5858" d="M1389.3 910.3c4.6 6.2 8.3 11.3 12.6 17.7l-1.1 1.2c-7.9 1-18.2 2.7-26.1 2 1.3-.6 3.3-1.2 4.7-1.6.8-1.4.3-.6 1.2-2.5l1.7 1 .3-1.1c1.6-7 3.3-10.3 6.7-16.7"/><path fill="#817A7A" d="M1285.4 886.2c6.4 2.9 13.2 7.3 19.5 9.1 2.8 1.4 2.7 1.8 5.8 2q14.2 6.8 29.2 11.8l6.9 2.7-2.4 2.4c-7 2.2-13.4 9.9-20.2 14.2l-.3 2.4-.6.2c-4.5-1.6-19.6-3.1-21.4-4.7-3.5-3-15.4-36.3-16.5-40.1"/><path fill="#969494" d="M1310.8 809.8c3.5 3.4 9 8.6 12.1 12-2.1 6.6-3.3 17.9-4.5 21l1.1 3.8c-9.4-3.5-36.5-16.9-45.4-9.3-4.2-1-15.9-5.2-20.6-6.8 16.5-2.2 46-8 57.3-20.7"/><path fill="#1B1A1B" d="M1464.1 899.5c2.2 1.8 2.7 1.4 5.7 1.6 5.9 1.3 8.7 1 14.7.8l3.4-.3-10.6 8.7-6.6 5c-6.4 3-14.3 6.9-20.7 9.3l-3.3.9a290 290 0 0 1-21.5-13.8c3.6-3.2 31.5-9.7 38.9-12.2"/><path fill="#111" d="m1484.5 901.9 3.4-.3-10.6 8.7-1.5-3.1c1.5-2.6 5.7-4 8.7-5.3"/><path fill="#CCC9C9" d="m1330.1 885.7 1.4-.6c9.9 4.7 19.1 8.5 26.3 17 3.1 3.8 5.1 6 4.5 11.2l-2 1.4c-4.3-1.1-9.1-2-13.5-2.9l-6.9-2.7q-15-5-29.2-11.8c7.5-2.4 14.8-5.2 19.4-11.6"/><path fill="#B1AEAD" d="M1357.8 902.1c3.1 3.8 5.1 6 4.5 11.2l-2 1.4c-4.3-1.1-9.1-2-13.5-2.9l-6.9-2.7c6.5-2.4 10.5-5.1 17.9-7"/><path fill="#FE662C" d="m1280.1 865.5 13.8 2.2c2.3 13.7 10.1 19.6 21.7 9.3 3.7 2 12.4 8.2 14.5 8.7-4.6 6.4-11.9 9.2-19.4 11.6-3.1-.2-3-.6-5.8-2-14.1-10.8-17.7-10.1-24.8-29.8"/><path fill="#414141" d="M1331 829.8c8.6 8.5 27.9 28.4 36.6 35.1.4 4.6.8 8.2 1.6 12.8-5.4-2.5-14-5-18.5-8.4-.7-3-8-8.3-10.8-10.5l-7.3-18.5c-1.3-3.9-1.3-6.4-1.6-10.5"/><path fill="#969494" d="M1334.6 877.9c6.6 1.4 19.1 7.6 25.5 10.7 4.3 10.4 8.9 21.4 14.5 31.1-5.8 2.2-9.4-1.7-14.3-5l2-1.4c.6-5.2-1.4-7.4-4.5-11.2-7.2-8.5-16.4-12.3-26.3-17z"/><path fill="#DDDBDA" d="M1274.1 837.3c8.9-7.6 36 5.8 45.4 9.3l.9 1.6c-.4 2.7-.4 4.6-2.2 6.6-14.6-6-29.2-12.4-44.1-17.5"/><path fill="#737272" d="m1322.9 821.8 8.1 8c.3 4.1.3 6.6 1.6 10.5l-1.6 1.5c-5.3-.5-7.9-1.6-12.6 1 1.2-3.1 2.4-14.4 4.5-21"/><path fill="#585757" d="m1332.6 840.3 7.3 18.5q-9.6-5.5-19.5-10.6l-.9-1.6-1.1-3.8c4.7-2.6 7.3-1.5 12.6-1z"/><path fill="#9D9796" d="M1320.4 848.2q9.9 5 19.5 10.6c2.8 2.2 10.1 7.5 10.8 10.5a447 447 0 0 0-32.5-14.5c1.8-2 1.8-3.9 2.2-6.6"/><path fill="#B53800" d="m1315.6 877 .6-4.6c4.9-3.4 13.3 2.8 18.4 5.5l-3.1 7.2-1.4.6c-2.1-.5-10.8-6.7-14.5-8.7"/><path fill="#323131" d="M1367.6 864.9q10.2 8.6 19.8 17.8c-5.4-1.5-13.1-3.2-18.2-5-.8-4.6-1.2-8.2-1.6-12.8"/><path fill="#DDDBDA" d="M1401.9 928c5.6-.8 34.6-1 43.9-1.7 2.8 3.9 6.5 8 7.1 12.5 6.1.3 18.7 9.5 28.3 12.6l-.2 12.7-.2 17.5c-.5 9.1 9.4 23.7 17.7 28 7.4-4.1 16.7-9.6 24.1-13.2-1.4 15.1-5.9 33-7.8 49a2734 2734 0 0 0-35.9 46.5v8.2c-4 2.2-7.4 3.9-11.6 5.8l-.9 1.1c-9.2-1-21.4 4.2-24.8 1.6l-.4.5-12.1 1.3c-3.6.7-8.7 1.5-12 2.7 1.4 2.8 2.6 2.8 6.1 4.5l.4 3.3c-6.4 1.4-10.4 1.7-16.8 2.2l-4-.6c-4.7-4.8-13.9-15.6-19.9-17.4l-.6-.2c-.6-1.9-12.5-22.8-14.1-25.9-2.3-3.7-8-16.3-9.3-20.2 7.1-8.1 25.9-31.8 39.3-28.9 6.8 1.4 7.9 9.5 18.2 11.1l-.2-1.2c-4.5-4.1-8.5-11.9-12.5-17.3-9.9-13.5-33.7-33.4-40.1-47.6 3.9-2.3 8.6-4.6 12.7-6.6l3.7-1.7c1.8-6 9.2-21.3 12.6-26.3l8.2-11.1z"/><path fill="#B1AEAD" d="M1452.9 938.8c6.1.3 18.7 9.5 28.3 12.6l-.2 12.7-.2 17.5c-.5 9.1 9.4 23.7 17.7 28 7.4-4.1 16.7-9.6 24.1-13.2-1.4 15.1-5.9 33-7.8 49a2734 2734 0 0 0-35.9 46.5v8.2c-10.3-4.3-23.3-12-32.9-15.2 3.9-6.7 3.7-39.7 3.9-49.6.4-24.8 3.2-49.3 2.3-74.1l-.5-21.9z"/><path fill="#414141" d="m1478.9 1091.9-1.1-15c-3.1-31.2-.3-64.1 3-95.3-.5 9.1 9.4 23.7 17.7 28 7.4-4.1 16.7-9.6 24.1-13.2-1.4 15.1-5.9 33-7.8 49a2734 2734 0 0 0-35.9 46.5"/><path fill="#585757" d="M1358.9 1058.8a464 464 0 0 1 34.6 7.5c12.4 3.3 26.7 8.8 38.9 11.5 5.1 3.1 8 5.1 13.6 7.1 9.6 3.2 22.6 10.9 32.9 15.2-4 2.2-7.4 3.9-11.6 5.8l-.9 1.1c-9.2-1-21.4 4.2-24.8 1.6l-.4.5-12.1 1.3c-3.6.7-8.7 1.5-12 2.7 1.4 2.8 2.6 2.8 6.1 4.5l.4 3.3c-6.4 1.4-10.4 1.7-16.8 2.2l-4-.6c-4.7-4.8-13.9-15.6-19.9-17.4l-.6-.2c-.6-1.9-12.5-22.8-14.1-25.9-2.3-3.7-8-16.3-9.3-20.2"/><path fill="#414141" d="M1368.2 1079c3.1.1 5 .4 8.1-.3l1.1-2.9 1.4 1-.4 2c4 2.7 37.9 18.2 41.1 17.2l.6 2.1q4.4 6.2 9 12.3c-3.6.7-8.7 1.5-12 2.7 1.4 2.8 2.6 2.8 6.1 4.5l.4 3.3c-6.4 1.4-10.4 1.7-16.8 2.2l-4-.6c-4.7-4.8-13.9-15.6-19.9-17.4l-.6-.2c-.6-1.9-12.5-22.8-14.1-25.9"/><path fill="#5E5858" d="M1420.1 1098.1q4.4 6.2 9 12.3c-3.6.7-8.7 1.5-12 2.7-1.8.3-2.9.2-4.7.1-3.7-1.5-4.5-3.4-6.9-6.9 5.4-2.5 10.3-4.1 14.6-8.2"/><path fill="#111" d="M1419.5 1096c-3.2 1-37.1-14.5-41.1-17.2l.4-2c22.8.5 26.2 1.7 40.7 19.2"/><path fill="#414141" d="M1441.6 1108.6c6-1.4 21.2-6.3 25.7-2.7l-.9 1.1c-9.2-1-21.4 4.2-24.8 1.6M1401.9 928c5.6-.8 34.6-1 43.9-1.7 2.8 3.9 6.5 8 7.1 12.5l-1.2.5c-17.2 6.9-21.3 14.1-40.9 18.4-5.5-5.4-13.7-11.7-18.2-17.4l8.2-11.1z"/><path fill="#CCC9C9" d="M1432.4 1077.8c-3.2-5.4-12.8-11.3-13.7-16.8-2.2-12 23.6-23.6 31.2-25.7-.2 9.9 0 42.9-3.9 49.6-5.6-2-8.5-4-13.6-7.1"/><path fill="#585757" d="M1392.6 940.3c4.5 5.7 12.7 12 18.2 17.4-5.9 1.5-25.3 6.5-30.8 8.9 1.8-6 9.2-21.3 12.6-26.3"/><path fill="#969494" d="M1225.1 824.3c7.2 4.6 12.7 6.9 16.4 15.1 5.1 11.5 10.1 10.7 15.6 13.5s21.5 29.4 28.3 33.3c1.1 3.8 13 37.1 16.5 40.1 1.8 1.6 16.9 3.1 21.4 4.7 11.2 15.6 35.5 29.6 53 37.3-4.1 2-8.8 4.3-12.7 6.6-18.4 8.6-140.3 72.2-149.2 73.3l-3.1-97.3 53-48.4c-10.9-19.5-33.7-56.8-39.2-78.2"/><path fill="#414141" d="m1033.2 1064.9 2.8-1.1c4.5 2.4 21.2 1.5 26.9 1.4 23.7.3 47-1.2 70.3-.9l-2.5 3.7c-11.7 24.4-23.7 50.1-35.9 74.1-.6 4.3-1.2 14.1.7 17.7v1c-4-2.6-9.5-7.9-13.3-10a141 141 0 0 1-41-33.4q-21-22.5-43.2-43.8c12.2-2.6 23.1-5.5 35.2-8.7"/><path fill="#232223" d="M1041.2 1117.4a613 613 0 0 0 48.6-27.6c7.7-4.8 33-21.6 40.9-21.8-11.7 24.4-23.7 50.1-35.9 74.1-.6 4.3-1.2 14.1.7 17.7v1c-4-2.6-9.5-7.9-13.3-10a141 141 0 0 1-41-33.4"/><path fill="#323131" d="M1035.8 993.7c7.6-1.3 32.4-5.9 38.8-4.9l.7 1.3-1.8 2.8-10.3 21.2c3.3 3 5.1 3.9 5 9.4-.4 13.9-4.6 24.7-5.2 39.1l-.1 1.6v1c-5.7.1-22.4 1-26.9-1.4l-2.8 1.1c-12.1 3.2-23 6.1-35.2 8.7l-3.1-3.1c-9.1-9.1-17.7-12.4-29-18.2l.6-1.8c6-9 11.9-19.1 17.8-27.7 4.2-7.3 6.1-13.8 9.4-21.6 1.2-2.6 1.1-1.9 4.2-3 13.9-1.2 24.2-2.6 37.9-4.5"/><path fill="#414141" d="M1035.8 993.7c7.6-1.3 32.4-5.9 38.8-4.9l.7 1.3-1.8 2.8c-6.3-.8-54.9 31.6-64.1 36.9-4.8 2.7-30.5 16.4-33.9 19.4l-9 1.3c6-9 11.9-19.1 17.8-27.7 4.2-7.3 6.1-13.8 9.4-21.6 1.2-2.6 1.1-1.9 4.2-3 13.9-1.2 24.2-2.6 37.9-4.5"/><path fill="#A39E9D" d="M1063.2 1014.1c3.3 3 5.1 3.9 5 9.4-.4 13.9-4.6 24.7-5.2 39.1l-.1 1.6v1c-5.7.1-22.4 1-26.9-1.4 9-14.8 18.6-34.2 27.2-49.7"/><path fill="#111" d="m966.5 1050.5 9-1.3c17.2 1.4 43.1 5.5 57.7 15.7-12.1 3.2-23 6.1-35.2 8.7l-3.1-3.1c-9.1-9.1-17.7-12.4-29-18.2z"/><path fill="#232223" d="m1382.3 1104.9.6.2c6 1.8 15.2 12.6 19.9 17.4-2.9 2.9-7.1 7.2-10 9.8-3.9 3.2-9.6 8-13.6 10.7l-2.7 3c-4.1.8-14.7 4.5-18 6.8 1.3 5.2 7.7 3.4 11.4 15-9.1-4-15.5-9-25.3-11-32.7-3.7-67.5-7.6-100.3-8.4-14.5-.3-33.7 3.8-49.2 3.2l5.1-3.6c6.3 0 11.7.4 17.9.9l.6-2.4c7.1-8.4 59-17.7 72.1-21.2 13.4-3.6 28.5-15.6 40.8-19.2 17.4-1.9 32.9.1 50.7-1.2"/><path fill="#111" d="M1382.9 1105.1c6 1.8 15.2 12.6 19.9 17.4-2.9 2.9-7.1 7.2-10 9.8-3.9 3.2-9.6 8-13.6 10.7-1.6-9.1 4.3-27.1 2.3-36.2z"/><path fill="#323131" d="m1248.6 1109.2 83-3.1c-12.3 3.6-27.4 15.6-40.8 19.2-13.1 3.5-65 12.8-72.1 21.2l-.6 2.4c-6.2-.5-11.6-.9-17.9-.9q24.5-19.1 48.4-38.8"/><path fill="#737272" d="M1023.3 965.4c7.8.2 22.8-7.2 32.5-8.4-2.8 8-3.6 12.4-12.3 15.4a125 125 0 0 1-34.8 6.7c4.7-4.9 9.5-9.1 14.6-13.7"/><path fill="#111" d="M1415.6 352.4q47 16.2 93.4 33.4c1.5 2.3 6.6 10 7.4 12.1 5.3 7.7 26.4 42.4 30.9 46.2 2 1.3 10.7 8 11.9 9.4 12.3 14.2 114.2 93.3 117.4 101.5l-.2.8q-6.1 37.1-13.7 73.9l-1.9 5.4 59.7 22c6 2.3 24.6 9.2 29.7 12.1-5.7.6-51.8 18.6-61.2 21.5-4.5 1.4-16.1 7-21.1 7.7 6.3 14.7 21.8 51.7 25 65.7a3765 3765 0 0 1 19.3 110.7c7.1 41.8 14.4 83.5 19.9 125.6 2.2 16.6 7.2 38.3 6.5 54.6-.2 3.8-77.4 220.6-82.4 229.8 9.8-76.4 14.7-151.2 20.8-227.9 1.2-8.2-11.1-96.8-15.2-104 .7-22.3-17.3-87.2-23.1-110.8q-5.8 40.1-12 80.2c-2.9 18.4-5 36.4-10.7 54.2a946 946 0 0 1-32.1 88.1 483 483 0 0 0 10.5-75.5c.2-10.4-3.5-40.3-4.6-51.2-5 3.3-11.9 8.7-17.7 8.4-6 3.7-16.9 14.5-23.6 19.6 2 2.8 4.2 6.3 6.4 8.9-5.3.4-16.7.4-20.4 3.3-3.1 5.8-10.4 14.5-11.9 18.3-7.4 3.6-16.7 9.1-24.1 13.2-8.3-4.3-18.2-18.9-17.7-28l.2-17.5.2-12.7c-9.6-3.1-22.2-12.3-28.3-12.6-.6-4.5-4.3-8.6-7.1-12.5l.9-.8 3.3-.9c6.4-2.4 14.3-6.3 20.7-9.3l6.6-5 10.6-8.7-3.4.3c-6 .2-8.8.5-14.7-.8-3-.2-3.5.2-5.7-1.6-3.6-1.9-11.2-5.1-14.2-7.2-25.9-20.4-56.2-43-78.7-67.2-16.3-17.7-33-38.2-49.4-56.3 3.8-4.1 23-28.9 25.2-32.9 8.8-15.3 55.7-62.2 59.2-73.7l-.8-1-.2-4.1c-6.3-7.8-24.5-31.6-30.4-37.7-13.8-19.8-28.6-39.3-42-59.4-9.9-15.3-41.7-52.9-54.2-67.9-5.7-2.5-14.9-15.2-18.4-20.6-14.9-.1-65.4 2.3-75.5-.1 24.6 0 53.3-2.9 76.4-1.9a486 486 0 0 0-53.5-44 604 604 0 0 0 95 5.2c8.3 4.6 20 14 28.1 19.8q19.6 14 41.1 24.6c-2.3-10.8-38.8-75-46.9-88.6 14.3 3.9 25.8 13.5 38.6 19.4 33.9 15.6 62.3 36.4 93.5 56.9-7.8-21.2-26.5-67-29.5-87.1l-2-4.6c-2.2-1.9-8.4-15.2-9.9-18.7"/><path fill="#232223" d="M1415.6 352.4q47 16.2 93.4 33.4c1.5 2.3 6.6 10 7.4 12.1-2.7 4.6-1.8 6.7-.4 12.2 5.7 22.4 15.2 46.5 20.4 68.7 8.2 22.1 22 53.6 32 74.9q-4 30.8-8.6 61.4c-1.7 11.9-3.8 28.6-6.2 40-2 13-8.8 58.9-12.2 69.8-.9-5.3-1.2-11.3-1.7-16.8-16.3-21.2-28.3-47.3-43.4-69.6-3.7-5.3-14.3-14.3-17.4-18.9-6.6-9.6-49.9-59.1-50.1-65.7-15.8-20.8-32.5-41.1-47.9-62-21.2-3.4-43.5-9-64.8-12.9q-27.6-4.8-55.1-9.2c5.2 7.3 12 15 17.6 22.3-5.7-2.5-14.9-15.2-18.4-20.6-14.9-.1-65.4 2.3-75.5-.1 24.6 0 53.3-2.9 76.4-1.9a486 486 0 0 0-53.5-44 604 604 0 0 0 95 5.2c8.3 4.6 20 14 28.1 19.8q19.6 14 41.1 24.6c-2.3-10.8-38.8-75-46.9-88.6 14.3 3.9 25.8 13.5 38.6 19.4 33.9 15.6 62.3 36.4 93.5 56.9-7.8-21.2-26.5-67-29.5-87.1l-2-4.6c-2.2-1.9-8.4-15.2-9.9-18.7"/><path fill="#3F3F3F" d="M1207.6 425.5a604 604 0 0 0 95 5.2c8.3 4.6 20 14 28.1 19.8q19.6 14 41.1 24.6l1.4.8c27 15.2 62.8 25.1 91.3 38 10.4 4.6 30.7 8.7 39.3 15.3.1 8.4-5.1 30.9-6.9 40.1q-6 29-9.7 58.4l-39.5-50.3c-4-5.2-15-20-18.9-23.5-15.8-20.8-32.5-41.1-47.9-62-21.2-3.4-43.5-9-64.8-12.9q-27.6-4.8-55.1-9.2c5.2 7.3 12 15 17.6 22.3-5.7-2.5-14.9-15.2-18.4-20.6-14.9-.1-65.4 2.3-75.5-.1 24.6 0 53.3-2.9 76.4-1.9a486 486 0 0 0-53.5-44"/><path fill="#414141" d="M1415.6 352.4q47 16.2 93.4 33.4c1.5 2.3 6.6 10 7.4 12.1-2.7 4.6-1.8 6.7-.4 12.2 5.7 22.4 15.2 46.5 20.4 68.7 8.2 22.1 22 53.6 32 74.9q-4 30.8-8.6 61.4c-1.7 11.9-3.8 28.6-6.2 40-3.1-6.6-4.9-14.3-7.2-21.3a479 479 0 0 1-16.9-62.4c-2.3-12.4-3.1-25.6-6.5-37.7-5-17.6-81.6-141.8-95.5-158l-2-4.6c-2.2-1.9-8.4-15.2-9.9-18.7"/><path fill="#232223" d="M1415.6 352.4q47 16.2 93.4 33.4c1.5 2.3 6.6 10 7.4 12.1-2.7 4.6-1.8 6.7-.4 12.2 5.7 22.4 15.2 46.5 20.4 68.7a4416 4416 0 0 1-110.9-107.7c-2.2-1.9-8.4-15.2-9.9-18.7"/><path fill="#A39E9D" d="M1404.6 630.6c20.9 16.5 40.8 34.3 60.8 51.9 1.7 1.5 3.8 1.5 5.9 1.5 7.1 6.7 11.2 14.8 17.7 20.1l1.5-1.4c4.3-.1 23.7 21.8 28.2 26.5-5.1 12.3-34.4 110.7-33.5 120.7 1.7 10.1 1.8 16.1 2 26.2.1 5.7-.5 21.2.7 25.5l-3.4.3c-6 .2-8.8.5-14.7-.8-3-.2-3.5.2-5.7-1.6-3.6-1.9-11.2-5.1-14.2-7.2-25.9-20.4-56.2-43-78.7-67.2-16.3-17.7-33-38.2-49.4-56.3 3.8-4.1 23-28.9 25.2-32.9 8.8-15.3 55.7-62.2 59.2-73.7 5.6 3.6 9.8 6.7 15.1 10.6-5.4-14.3-11.1-28-16.7-42.2"/><path fill="#585757" d="M1485.2 849.9c1.7 10.1 1.8 16.1 2 26.2.1 5.7-.5 21.2.7 25.5l-3.4.3c-6 .2-8.8.5-14.7-.8 3.7.1 4.8.2 8.5-.8 1.6-18.1 3.9-32.5 6.9-50.4"/><path fill="#232223" d="M1547.3 444.1c2 1.3 10.7 8 11.9 9.4 12.3 14.2 114.2 93.3 117.4 101.5l-.2.8q-6.1 37.1-13.7 73.9c-5.2-8.3-13.2-44.4-13.6-44.8-4.2 4.3-8.4 12.9-12.1 18.1-10.8 15.4-26.7 44.3-39.4 56.9q3.4-8.3 6.6-16.8c-6-30.6-19.2-57.8-21.7-88.9a589 589 0 0 0-7.8-41.7c-3.8-16.4-12.8-34.2-16.2-50.5-3.1-5.9-8.5-10.2-11.2-17.9"/><path fill="#414141" d="M1547.3 444.1c2 1.3 10.7 8 11.9 9.4 12.3 14.2 114.2 93.3 117.4 101.5l-.2.8c-3.8 2.8-20.9 22.4-26.4 27.9-4-5.6-11.1-14-15.7-20.1l-35.4-47.5c-10.1-13.6-30.2-43.4-40.4-54.1-3.1-5.9-8.5-10.2-11.2-17.9"/><path fill="#82807F" d="M1518.7 729.2c6.9 7.1 14 14.3 20.5 21.7-.6 31 4.7 65.1 7.4 96.5 1.9 20.9 2.1 40.4 3.7 60.6l-7.6 13.4c-6.1.8-20.2 1.4-26.4 1l-2.7-1.4c-3.1.7-8.6 4-11.6 5.7-9.4-1.9-14.6-4.1-23.5-7.7-4.3-.5-4.4-.7-7.8-3.7l6.6-5 10.6-8.7c-1.2-4.3-.6-19.8-.7-25.5-.2-10.1-.3-16.1-2-26.2-.9-10 28.4-108.4 33.5-120.7"/><path fill="#323131" d="M1524.3 880.8c-1.6 17.4-5.6 26-8 41.6l-2.7-1.4c.3-8.3 8.4-29.7 10.7-40.2"/><path fill="#585757" d="M1569.2 749.4c2.1 2.7 2 3.5 6.2 3.7 7.6.5 15.7.4 23.4.5 1.1 25.6-8.3 79.5-9.9 107.9l2.5 45.8-1.9 2.5c-15 2.5-29.6 9-46.8 11.6l7.6-13.4c-1.6-20.2-1.8-39.7-3.7-60.6-2.7-31.4-8-65.5-7.4-96.5 9.4-.3 20.9-.3 30-1.5"/><path fill="#A39E9D" d="m1589.5 909.8-2.1-2c-3.5-9.9-1.9-36.8 1.5-46.3l2.5 45.8z"/><path fill="#414141" d="m1660.8 635.1 59.7 22c6 2.3 24.6 9.2 29.7 12.1-5.7.6-51.8 18.6-61.2 21.5-4.5 1.4-16.1 7-21.1 7.7-6.8 2.8-15.4 4.9-22.5 7.4-26.8 9.2-53.7 16.2-78.4 30.6-8.4 4.9-18.8 9.6-27.7 14.1a892 892 0 0 1 72.8-81.4c3.4-3.3 16.5-11.6 21.4-15 8.3-5.6 19.1-14.2 27.3-19"/><path fill="#737272" d="M1450 924.6c6.4-2.4 14.3-6.3 20.7-9.3 3.4 3 3.5 3.2 7.8 3.7 8.9 3.6 14.1 5.8 23.5 7.7 3-1.7 8.5-5 11.6-5.7-7.1 9.1-22.8 20.4-31.5 29.3l-.2 14.1-.9-.3.2-12.7c-9.6-3.1-22.2-12.3-28.3-12.6-.6-4.5-4.3-8.6-7.1-12.5l.9-.8z"/><path fill="#82807F" d="M1450 924.6c6.4-2.4 14.3-6.3 20.7-9.3 3.4 3 3.5 3.2 7.8 3.7l-5.8 3.6c-5.1 3.1-17.9 6.6-22.7 2"/><path fill="#232223" d="m1481 964.1.9.3c.2 10.9 1.2 9.8 11.1 14.4a57 57 0 0 0 18.9 8.9l-.2.2-.1 1.4c5.2 1.5 14.8-7.9 22.9-11.2-3.1 5.8-10.4 14.5-11.9 18.3-7.4 3.6-16.7 9.1-24.1 13.2-8.3-4.3-18.2-18.9-17.7-28z"/><path fill="#414141" d="M1493 978.8c10.8-5.1 14.8-7.2 20.8-17.8 4.5 1.7 11.7 4 15 6.9 1.1 7.6-10.7 16.9-16.9 19.8a57 57 0 0 1-18.9-8.9m52.8-35c6.9-1.1 20.4-4 26.4-1.8 1 2.7.8 1.3-.1 4.3-6 3.7-16.9 14.5-23.6 19.6-.7-1.4-1.7-4.3-2.3-5.8-.4-6.1-.8-10.2-.4-16.3"/><path fill="#323131" d="m1512.8 946.6 33-2.8c-.4 6.1 0 10.2.4 16.3a185 185 0 0 1-33.4-13.5"/><path fill="#232223" d="M1569.2 749.4c14.4-4.1 24.6-4.5 39.7-4.4-2.9 2.1-8.6 5.8-10.1 8.6-7.7-.1-15.8 0-23.4-.5-4.2-.2-4.1-1-6.2-3.7"/><path fill="#2E2E2E" d="M1591.4 907.3c1.6 9.5 5.3 14.7 10.7 22.6a78 78 0 0 0-12.5 7.4c1.9-12.3 2.6-15.3-.1-27.5z"/><path fill="#111" d="M1053.6 31.8c21.5 3.7 46.5 9.4 67.7 8.2 2 1.3 2 .7 2.3 2.3 1.9 9.9 2.8 20.7 3.8 30.7q3.2 32.3 5.3 64.5c5.3-5.6 32.5-34.3 35.3-38.9 9.5-15.7 22.4-44.5 31.1-61.9l41.8 142.8c-30.1 31.6-60.8 64.9-91.8 95.3q27.1-1.4 54-4.1c-6.9 9.2-14.3 18.7-21 28.1a487 487 0 0 1 50.4 18.1 214 214 0 0 0-19.5-24.1c57.5 13.9 152.1 33.9 202.6 59.6 1.5 3.5 7.7 16.8 9.9 18.7l2 4.6c3 20.1 21.7 65.9 29.5 87.1-31.2-20.5-59.6-41.3-93.5-56.9-12.8-5.9-24.3-15.5-38.6-19.4 8.1 13.6 44.6 77.8 46.9 88.6a300 300 0 0 1-41.1-24.6c-8.1-5.8-19.8-15.2-28.1-19.8a604 604 0 0 1-95-5.2 486 486 0 0 1 53.5 44c-23.1-1-51.8 1.9-76.4 1.9-20.3-.6-38.9 0-58.7-.4-12.5-.2-24.6-.7-37.1 0-5.7-5.2-11.6-11.4-17.1-16.9-16.8-2.8-64.3-39.3-81.6-48.1a86 86 0 0 1-12.5-8.8l.3-1.5c-7.3 1-12.3 2.1-19.1 5.5q-3.3-5.3-6.3-10.7l.9-1.7c4.2-8.6 7.8-18.9 11.2-27.8 8.9-17.4 19.8-34.3 28.8-52.3l.8-.6.7-.2.5-1c17.2-7.1 49.9-25.9 65.5-30.1l-.1-.5 1-.2 3.9-.5c-5.9-4.8 22.7-77.2 19.7-89.7-11.4-50.4-21.5-103.3-31.9-154.1"/><path fill="#323131" d="M1044.9 354.4q7.3.8 14.7 1.9c19.9 5.2 32.3 3.8 52.5 6l116.9 13.3c24.9 2.8 49.7 6.9 74.6 9.4 4.4.4 17.6 1.9 21.3 1.5 8.1 13.6 44.6 77.8 46.9 88.6a300 300 0 0 1-41.1-24.6c-8.1-5.8-19.8-15.2-28.1-19.8a604 604 0 0 1-95-5.2 486 486 0 0 1 53.5 44c-23.1-1-51.8 1.9-76.4 1.9-20.3-.6-38.9 0-58.7-.4-.9-2.9-45.5-63.2-50.9-70.9a694 694 0 0 1-30.2-45.7"/><path fill="#585757" d="m995 307.9.5-1c8.9 9.2 15.2 20.9 23 28.8-6.4 7.7-12 17.2-17.9 25.4-1.8 3.2-3.3 6.5-6 8.9-2 3.2-15 24-16.6 25.7-7.3 1-12.3 2.1-19.1 5.5q-3.3-5.3-6.3-10.7l.9-1.7c4.2-8.6 7.8-18.9 11.2-27.8 8.9-17.4 19.8-34.3 28.8-52.3l.8-.6z"/><path fill="#737272" d="m995 307.9.5-1c8.9 9.2 15.2 20.9 23 28.8-6.4 7.7-12 17.2-17.9 25.4-7-15.6.2-39-5.6-53.2"/><path fill="#414141" d="M953.5 388.8c7.6-1.2 32.3-14.8 41.1-18.8-2 3.2-15 24-16.6 25.7-7.3 1-12.3 2.1-19.1 5.5q-3.3-5.3-6.3-10.7z"/><path fill="#232223" d="M1085.4 272.3c4.2-10 15.3-20.4 19.4-29.8 8.2-18.5 21.3-38.3 23.8-58.1 1.8-14.8 1.5-29.8 3.6-43.9l.2-1.4c9.8 15.8 15.8 40 26.6 54.8-10.7 18.7-42.8 57.3-57.2 75.9z"/><path fill="#9C9B9B" d="M995.5 306.9c17.2-7.1 49.9-25.9 65.5-30.1 5.5 6.2 11.7 13.6 15.8 20.9a525 525 0 0 1-58.3 38c-7.8-7.9-14.1-19.6-23-28.8"/><path fill="#B1AEAD" d="M1088.4 310.3c4.9 5.7 12.7 14.3 18.9 18.4-7.3 3.7-22.5 12.3-28.9 15.1-6.5 4.1-12.5 8-18.8 12.5q-7.3-1.1-14.7-1.9l-2.8 1.5c-6.2-6.2-3.6-6.2-12.1-12.9l-4-2.4c17.9-7.8 44.5-21.4 62.4-30.3"/><path fill="#969494" d="M1030 343c11.9.1 39.5-3 48.4.8-6.5 4.1-12.5 8-18.8 12.5q-7.3-1.1-14.7-1.9l-2.8 1.5c-6.2-6.2-3.6-6.2-12.1-12.9"/><path fill="#585757" d="M1023.1 342.7c1.1-1.6.9-1.1 2.9-2.1l4 2.4c8.5 6.7 5.9 6.7 12.1 12.9a46 46 0 0 1-5.7 9.2c-5.1 10.6-36.4 22.3-47.9 26.8 5.1-9.1 11.6-21.2 17.5-29.3 4.7-6.5 11.7-13.1 17.1-19.9"/><path fill="#82807F" d="M1023.1 342.7c1.1-1.6.9-1.1 2.9-2.1l4 2.4c8.5 6.7 5.9 6.7 12.1 12.9a46 46 0 0 1-5.7 9.2c-4.1-4.1-10.2-16.6-13.3-22.4"/><path fill="#737272" d="m1085.4 272.3 16.4-2.5c6 5.9 11.7 9.4 18.7 14a229 229 0 0 1-43.7 13.9 129 129 0 0 0-15.8-20.9l-.1-.5 1-.2 3.9-.5zm3 38c10.6-2.7 32.2-5.6 43.5-7q6.8 4 13.8 7.8c-9.9 4.9-28.2 14.2-38.4 17.6-6.2-4.1-14-12.7-18.9-18.4"/><path fill="#111" d="M1849.9 1773.4c13.1 29.6 20.7 64.6 34.2 94.4 4.2 9.4 6.9 21.9 11.5 30.8 16.9 32.3 34.8 64.1 50.1 97.2 6.9 14.9 19 36.6 22.7 52.2h-161.7c2.7-13.8 5.1-33.7 7.2-48.1q9-61 17.2-122.1.6-6 .9-12.1l.1-.7c-1.9-4.9 3.1-18 4.3-23.9q7-33.8 13.5-67.7"/><path fill="#111" d="M1831.1 1877.8c2.5 1.2 2.5.5 3.5 4.1 5.2 17.8 9.2 37.1 13.3 55.2l24.6 110.9h-65.8c2.7-13.8 5.1-33.7 7.2-48.1q9-61 17.2-122.1"/><path fill="#232223" d="M1832.1 1865c8.1 12.9 16.3 28.8 23.7 42.4l35.7 65.4 26.6 48.8c3.6 6.6 11.1 19.9 13.9 26.4h-59.5l-24.6-110.9c-4.1-18.1-8.1-37.4-13.3-55.2-1-3.6-1-2.9-3.5-4.1q.6-6 .9-12.1z"/><path fill="#111" d="M1344.6 1156.8c9.8 2 16.2 7 25.3 11a61 61 0 0 0 20.1 6.2c4.8 4.7 5.8 8.3 7.7 14.8a84 84 0 0 1-13.3 20.3c-.3 7.8-1.2 17.8 2.1 24.9 3.8-5.1 7.8-11.5 11.3-16.9 9.2 8.8 83.2 146.5 92.5 166.4q-6 11.7-12.6 23.3-59.9-28.2-120.3-55.3c-1.4-.5-3.9-2-5.2-2.8q-21.5-10.4-42.8-21.2c1.8-11.3 11.6-21.2 14.2-31.4 6.3-25 11.8-50.9 16.9-76.1-6.8-2.6-9.6-4.7-16-2.2l1.5-3.5-.7-.1c-1-7-10.5-23.7-14.2-30.7 10.6.8 23.2.9 33.1 2 .6-1.7 0-23 .4-28.7"/><path fill="#2D2C2C" d="M1344.6 1156.8c9.8 2 16.2 7 25.3 11a61 61 0 0 0 20.1 6.2c4.8 4.7 5.8 8.3 7.7 14.8a84 84 0 0 1-13.3 20.3c-.3 7.8-1.2 17.8 2.1 24.9-2 3-5.9 8.8-6.8 12.2a54 54 0 0 0-20.5-15.9l-1 2.4c-3.9-12 7.3-26-8.1-32-1.9-.7-2.4-2.4-3.5-4.2-3.8.1-17.1 14.3-20.6 17.8l-.7-.1c-1-7-10.5-23.7-14.2-30.7 10.6.8 23.2.9 33.1 2 .6-1.7 0-23 .4-28.7"/><path fill="#969494" d="M1344.6 1156.8c9.8 2 16.2 7 25.3 11a61 61 0 0 0 20.1 6.2c4.8 4.7 5.8 8.3 7.7 14.8a84 84 0 0 1-13.3 20.3l-1-6.1c-2.2-3.7-10.1-5.5-14.6-7-5.9-2.2-19.8-7.3-24.6-10.5.6-1.7 0-23 .4-28.7"/><path fill="#585757" d="M1367.1 1218.3c5.1-4.4 12.8-10.2 16.3-15.3l1 6.1c-.3 7.8-1.2 17.8 2.1 24.9-2 3-5.9 8.8-6.8 12.2a54 54 0 0 0-20.5-15.9c2.1-4.9 4.8-7.8 7.9-12"/><path fill="#414141" d="M1368.8 1196c4.5 1.5 12.4 3.3 14.6 7-3.5 5.1-11.2 10.9-16.3 15.3.1-6.9 0-15.7 1.7-22.3"/><path fill="#323131" d="M1359.2 1230.3a54 54 0 0 1 20.5 15.9c-2.1 9.3-4 18.6-6.8 27.7 1.7 19.9 3 46.5 3.1 66.4-2.4-4.6-9.6-18.1-10.7-22.4a261 261 0 0 1-5.3-76.1q-.6-4.5-1.8-9.1z"/><path fill="#82807F" d="M1359.2 1230.3a54 54 0 0 1 20.5 15.9c-2.1 9.3-4 18.6-6.8 27.7l-4.6 11.3c-3.7-14.6-5.1-28.8-8.3-43.4q-.6-4.5-1.8-9.1z"/><path fill="#232223" d="M1352.2 1348.7c4-4.8 1.2-7 4.9-12 2.1 4.1 0 11.4.3 14.8-1.4-.5-3.9-2-5.2-2.8m54.6-225.6c6.4-.5 10.4-.8 16.8-2.2 2.5 13.1 6.7 24.9 9.5 37.4.9 2.7 2.6 7.1 3.2 9.8l-6.8 15.5c17.4 9.3 138 64.9 140.4 68.9-5.2 6.1-15.1 22.7-19.5 30a6787 6787 0 0 0-40.5 68.2c-4.2 7.1-15.1 26.8-19.6 32.8-9.3-19.9-83.3-157.6-92.5-166.4 4.3-6.7 10.2-15.2 12.7-22.6l-6.5-7.9-5.3 2.8-1-.6c-1.9-6.5-2.9-10.1-7.7-14.8-4.4 0-16.2-3.8-20.1-6.2-3.7-11.6-10.1-9.8-11.4-15 3.3-2.3 13.9-6 18-6.8l2.7-3c4-2.7 9.7-7.5 13.6-10.7 2.9-2.6 7.1-6.9 10-9.8z"/><path fill="#323131" d="M1392.8 1132.3c3.9 9.4 6.6 16.5 12 25.1l1.5-.8c2.1 8.6 7.5 30.3 4.2 37.9l-6.5-7.9-5.3 2.8-1-.6c-1.9-6.5-2.9-10.1-7.7-14.8-4.4 0-16.2-3.8-20.1-6.2-3.7-11.6-10.1-9.8-11.4-15 3.3-2.3 13.9-6 18-6.8l2.7-3c4-2.7 9.7-7.5 13.6-10.7"/><path fill="#82807F" d="M1392.8 1132.3c3.9 9.4 6.6 16.5 12 25.1-2.8.6-11.8 1.1-15.3 1.4a75 75 0 0 1-13-12.8l2.7-3c4-2.7 9.7-7.5 13.6-10.7"/><path fill="#111" d="M1390 1174c3.3-2.1 4.1-2.6 7.7-4.2 1.5 3.8 5.6 13.2 6.3 16.8l-5.3 2.8-1-.6c-1.9-6.5-2.9-10.1-7.7-14.8"/><path fill="#232223" d="m1402.8 1122.5 4 .6c-4.9 4.1 0 26.3-.5 33.5l-1.5.8c-5.4-8.6-8.1-15.7-12-25.1 2.9-2.6 7.1-6.9 10-9.8"/><path fill="#585757" d="M1490.3 1383.5c4.5-6 15.4-25.7 19.6-32.8q20-34.2 40.5-68.2c4.4-7.3 14.3-23.9 19.5-30l.8.6c13.1 46.3 34.2 92.7 47.5 139.2 3 10.4 9.1 27 11.1 37.2.9 4 2.4 8.4 1 12.1-35.6-8-71-15.1-107.5-16.6-6.1-.3-34-14.3-43.3-17.6l-1.8-.6q6.6-11.6 12.6-23.3"/><path fill="#232223" d="M1851.5 1764.5c19.9 19.8 39.1 42.2 57.6 63.5 12.8 14.8 28.9 32.2 40.8 47.5.7 28.8 2.4 57.3 2.3 86.2 28.8 26.5 59.8 58.3 87.5 86.3h-71.3c-3.7-15.6-15.8-37.3-22.7-52.2-15.3-33.1-33.2-64.9-50.1-97.2-4.6-8.9-7.3-21.4-11.5-30.8-13.5-29.8-21.1-64.8-34.2-94.4z"/><path fill="#CCC9C9" d="M1679.3 1618.1c49.7 26.9 98.1 56.2 147.7 83.3 6.7 3.7 27.1 13.9 32.5 18.4l-6.4 4.5a432 432 0 0 0-61 33c-4.2-.2-12.6-.9-16.4-.7l-1.3-.3-.2-2-2.8-.7c-12.7-2-55-17.4-61.4-14.4a1543 1543 0 0 1-30.7-121.1"/><path fill="#323131" d="M1750.2 669.2c-.4 23 .5 46.1.7 69.1 0 15.1 1.9 28 5 42.8 7 43.9 16.5 89.3 21.4 133.5-10.9-6-21.7-49.8-26.9-52.1-3 2.8-5.7 9-7.7 12.8q-15.9-35-31.2-70.2c-3.5-8.2-14.3-34.9-18.6-41-3.2-14-18.7-51-25-65.7 5-.7 16.6-6.3 21.1-7.7 9.4-2.9 55.5-20.9 61.2-21.5"/><path fill="#CCC9C9" d="M1570.7 1253.1c10.6 9.6 33.5 38.5 43.5 50.5 40 47.5 77.6 97.5 115.5 146.6-5.5 3.2-9.2 5.5-15.2 7.5-4.2-.8-20.4-3.3-23-4.5-1.3-2.7-11.1-5.1-14.3-6.1l-1.6 3.2c-14.4-3.2-30.8-5.9-45.3-8.7 1.4-3.7-.1-8.1-1-12.1-2-10.2-8.1-26.8-11.1-37.2-13.3-46.5-34.4-92.9-47.5-139.2"/><path fill="#737272" d="M1629.3 1429.5q23.9 9.3 47.9 17.6l-1.6 3.2c-14.4-3.2-30.8-5.9-45.3-8.7 1.4-3.7-.1-8.1-1-12.1"/><path fill="#323131" d="M1661.8 952.9c4.1 7.2 16.4 95.8 15.2 104-3.3 4.2-17.6 40.9-21.1 48.4-11.9 25.7-24.4 55.1-37.6 80 8.9-27.9 20.4-65.5 27-94 10.2-44.7 12.3-92.9 16.5-138.4"/><path fill="#232223" d="M1004 0h29c28.3 13.9 59.5 26.7 88.3 40-21.2 1.2-46.2-4.5-67.7-8.2-3.8-4-40.5-25.1-49.6-31.8m738.7 875.3c2-3.8 4.7-10 7.7-12.8 5.2 2.3 16 46.1 26.9 52.1 2.4 25.9 7.6 52.4 9.8 79.9-7.1-18.8-13.1-38.4-20.1-57.2-7.7-20.9-16.1-41.3-24.3-62"/><path fill="#585757" d="M1441.6 1108.6c3.4 2.6 15.6-2.6 24.8-1.6-9.7 14.9-23.8 38.4-33.3 51.3-2.8-12.5-7-24.3-9.5-37.4l-.4-3.3c-3.5-1.7-4.7-1.7-6.1-4.5 3.3-1.2 8.4-2 12-2.7l12.1-1.3z"/><path fill="#111" d="M1441.2 1109.1c-3.4 3.6-12.9 6.5-18 8.5-3.5-1.7-4.7-1.7-6.1-4.5 3.3-1.2 8.4-2 12-2.7z"/></g><defs><clipPath id="clip0_3_4453"><path fill="#fff" d="M0 0h2048v2048H0z"/></clipPath></defs></svg>